<svg xmlns="http://www.w3.org/2000/svg" xmlns:xlink="http://www.w3.org/1999/xlink" version="1.1" width="595.8571454602844" height="402.2857160616894" enable-background="new 190.844 589.531 318.351 220.945" xml:space="preserve" style=""><rect id="backgroundrect" width="100%" height="100%" x="0" y="0" fill="none" stroke="none" class="" style=""/>

<g class="currentLayer" style=""><title>Layer 1</title><g id="svg_1" class="">
	<g opacity="0.09" id="svg_2">
		<path fill="#B6A2AC" d="M57.52679893612317,111.59529515821109 c-18.721759893626484,4.791699030302085 -61.25599077896749,38.48717233954175 -55.761520796272315,66.30143134122736 s36.122465372178944,33.6936664845676 41.15921790965129,49.15827885272581 s0.9154348904456634,32.6077648566598 -4.1213176470267,50.24598730530569 s7.327200403607748,68.72257640178726 34.74931303651044,85.66878500103435 s215.7188827814815,-7.65732296018863 239.52763249315365,16.94620859924708 c23.76037307112006,24.60353155943569 127.54873409540741,14.969542408013865 143.52418931769688,-17.094368222355968 s71.27925857333896,-25.147385785725643 85.93179874053321,-65.75938393960949 c14.602302886621011,-40.611998153883825 64.46187353554855,-154.49073675978482 0,-156.07170834783705 s-85.01450321006634,13.883640780106044 -131.61795382183962,22.973775705237937 s-81.81048109350652,-50.78803470692357 -130.70251893139388,-72.18083882410933 s-116.10021604477294,-44.36657982242371 -125.25828622927195,-38.48717233954175 s-5.03675253747236,12.302669192053887 -21.012207759761864,26.728357373777804 C117.81711754407183,94.50092693585515 57.52679893612317,111.59529515821109 57.52679893612317,111.59529515821109 z" id="svg_3"/>
	</g>
	<path fill="#EFEFEF" d="M533.5306142876117,178.88505959505542 H280.2156392371362 c-12.31185502048564,0 -22.38536009543036,-9.782148774530729 -22.38536009543036,-21.73790762954916 v-134.38258498443344 c0,-11.955758855018441 10.073505074944729,-21.73790762954916 22.38536009543036,-21.73790762954916 h253.31683569049665 c12.31185502048564,0 22.38536009543036,9.782148774530729 22.38536009543036,21.73790762954916 v134.38258498443344 C555.917835023063,169.10291082052433 545.8443299481181,178.88505959505542 533.5306142876117,178.88505959505542 z" id="svg_4"/>
	<rect x="371.2344392221455" y="76.6151940483959" fill="#FFDD8F" width="31.54342767872027" height="30.63109446643912" id="svg_5"/>
	<rect x="346.8134771730082" y="23.257835550115924" fill="#FFDD8F" width="31.54342767872027" height="30.63109446643912" id="svg_6"/>
	<rect x="387.00518505960025" y="23.257835550115924" fill="#FFDD8F" width="31.54342767872027" height="30.63109446643912" id="svg_7"/>
	<g id="svg_8">
		<path fill="#F7B58F" d="M380.90045270601,105.7646719414748 L380.90045270601,105.7646719414748 c-4.476699891081824,0 -8.140300092885697,-3.557637779285373 -8.140300092885697,-7.904857940260795 l0,0 c0,-4.347220160975421 3.663600201803871,-7.904857940260795 8.140300092885697,-7.904857940260795 l0,0 c4.476699891081824,0 8.140300092885697,3.557637779285373 8.140300092885697,7.904857940260795 l0,0 C389.0407527988954,102.20703416218915 385.37715259709216,105.7646719414748 380.90045270601,105.7646719414748 z" id="svg_9"/>
		<g id="svg_10">
			<path fill="#7F00FF" d="M316.0831969264063,193.7552266461059 h-18.82409509479419 c-8.292872574626644,0 -7.937490330571516,-6.620205598426411 -7.937490330571516,-14.673223161796095 l-7.172767281845568,-71.73635995478271 c0,-8.053017563369682 6.817385037790446,-14.673223161796095 15.110257612417081,-14.673223161796095 h18.82409509479419 c8.292872574626644,0 15.110257612417081,6.620205598426411 15.110257612417081,14.673223161796095 l-7.275102483013279,71.73635995478271 C323.9183520558101,187.18380531382496 324.3760695010328,193.7552266461059 316.0831969264063,193.7552266461059 z" id="svg_11"/>
			<path fill="#7F00FF" d="M346.05066510835303,132.74056429532476 l-24.980952925047617,-15.612771991267092 c-4.171554927599941,-2.6180889498143767 -5.392134781527486,-8.053017563369682 -2.6960673907637447,-12.103918478127328 l0,0 c2.6960673907637447,-4.050900914757646 8.292872574626644,-5.236177899628747 12.46442750222658,-2.6180889498143767 l24.980952925047617,15.612771991267092 c4.171554927599941,2.6180889498143767 5.392134781527486,8.053017563369682 2.6960673907637447,12.103918478127328 l0,0 C355.86926250038886,134.1733762602681 350.22222003595283,135.35865324513927 346.05066510835303,132.74056429532476 z" id="svg_12"/>
			<path fill="#7F00FF" d="M345.59294766313025,121.37744393274188 l22.690505058912244,-22.03422687576694 c3.053310274840097,-2.964999286849822 8.037964891717989,-2.964999286849822 11.091275166558095,0 l0,0 c3.053310274840097,2.964999286849822 3.053310274840097,7.8054825832975165 0,10.770481870147334 l-22.690505058912244,22.03422687576694 c-3.053310274840097,2.964999286849822 -8.037964891717989,2.964999286849822 -11.091275166558095,0 l0,0 C342.58987466886333,129.1341422498938 342.58987466886333,124.29185212877407 345.59294766313025,121.37744393274188 z" id="svg_13"/>
			<path opacity="0.1" enable-background="new    " d="M346.05066510835303,132.74056429532476 l-24.980952925047617,-15.612771991267092 c-4.171554927599941,-2.6180889498143767 -5.392134781527486,-8.053017563369682 -2.6960673907637447,-12.103918478127328 l0,0 c2.6960673907637447,-4.050900914757646 8.292872574626644,-5.236177899628747 12.46442750222658,-2.6180889498143767 l24.980952925047617,15.612771991267092 c4.171554927599941,2.6180889498143767 5.392134781527486,8.053017563369682 2.6960673907637447,12.103918478127328 l0,0 C355.86926250038886,134.1733762602681 350.22222003595283,135.35865324513927 346.05066510835303,132.74056429532476 z" id="svg_14"/>
			<path opacity="0.1" enable-background="new    " d="M345.59294766313025,121.37744393274188 l22.690505058912244,-22.03422687576694 c3.053310274840097,-2.964999286849822 8.037964891717989,-2.964999286849822 11.091275166558095,0 l0,0 c3.053310274840097,2.964999286849822 3.053310274840097,7.8054825832975165 0,10.770481870147334 l-22.690505058912244,22.03422687576694 c-3.053310274840097,2.964999286849822 -8.037964891717989,2.964999286849822 -11.091275166558095,0 l0,0 C342.58987466886333,129.1341422498938 342.58987466886333,124.29185212877407 345.59294766313025,121.37744393274188 z" id="svg_15"/>
			<path fill="#232323" d="M315.1677620359607,50.92392949512167 l-21.572260406152395,18.279645207227073 c-7.275102483013279,0 -13.126815349784822,-5.7312478597730845 -13.126815349784822,-12.747148061380543 v-5.532497145846523 c0,-10.029683754602898 8.495682336940828,-18.279645207227073 18.82409509479419,-18.279645207227073 h15.262830094158026 c10.328412757853371,0 18.82409509479419,8.201177186478567 18.82409509479419,18.279645207227073 l0,0 C333.33132992321794,61.00420434054205 325.49617479381453,50.92392949512167 315.1677620359607,50.92392949512167 z" id="svg_16"/>
			<path fill="#F7B58F" d="M314.35280170666124,88.12644949282881 h-7.7328199282361005 c-10.42888731899984,0 -18.976667576535128,-8.300552543441846 -18.976667576535128,-18.427804830335965 v-7.509163337079739 c0,-10.127252286894109 8.547780257535289,-18.427804830335965 18.976667576535128,-18.427804830335965 h7.7328199282361005 c10.42888731899984,0 18.976667576535128,8.300552543441846 18.976667576535128,18.427804830335965 v7.509163337079739 C333.33132992321794,79.87648804020478 324.7835496656829,88.12644949282881 314.35280170666124,88.12644949282881 z" id="svg_17"/>
			<path fill="#232323" d="M321.3748571467872,37.63473403212313 h-4.273890128767646 c-1.3731523356684914,0 -2.645830110190507,0.5438542262899456 -3.5612650006361677,1.384027698797666 c-3.5110277200629287,-3.4094781561764855 -8.395207775794347,-5.532497145846523 -13.737105276748597,-5.532497145846523 l0,0 c-10.683795001908495,0 -19.38414774118472,8.497496432696343 -19.38414774118472,18.823499433517 v58.792268004147665 c0,10.374787266966287 8.750590019849465,18.823499433517 19.38414774118472,18.823499433517 l0,0 c10.683795001908495,0 19.38414774118472,-8.497496432696343 19.38414774118472,-18.823499433517 v-58.792268004147665 c0,-0.19694388925449846 0,-0.39569460318105587 0,-0.6414227585811647 h2.1360147443732074 c2.798402591931451,0 5.139087738640066,-2.2223943466333203 5.139087738640066,-4.990449744228646 V42.52580841938866 C326.51394488542695,39.85712837875652 324.17325973871834,37.63473403212313 321.3748571467872,37.63473403212313 z" id="svg_18"/>
			<path fill="#EFA681" d="M304.5342043146257,335.0055522090379 h-8.495682336940828 c-2.9509750736723914,0 -5.341897500954251,-2.3217697035966 -5.341897500954251,-5.18739363348314 v-110.17474802817878 c0,-2.8656239298865422 2.390922427281858,-5.18739363348314 5.341897500954251,-5.18739363348314 h8.495682336940828 c2.9509750736723914,0 5.341897500954251,2.3217697035966 5.341897500954251,5.18739363348314 v110.17474802817878 C309.8761018155792,332.68378250544123 307.4349421077248,335.0055522090379 304.5342043146257,335.0055522090379 z" id="svg_19"/>
			<path fill="#F7B58F" d="M315.6254794811833,335.0055522090379 h-8.547780257535289 c-2.9509750736723914,0 -5.341897500954251,-2.3217697035966 -5.341897500954251,-5.18739363348314 v-110.17474802817878 c0,-2.8656239298865422 2.390922427281858,-5.18739363348314 5.341897500954251,-5.18739363348314 h8.495682336940828 c2.9509750736723914,0 5.341897500954251,2.3217697035966 5.341897500954251,5.18739363348314 v110.17474802817878 C320.96737698213775,332.68378250544123 318.5262172742824,335.0055522090379 315.6254794811833,335.0055522090379 z" id="svg_20"/>
			<path fill="#141414" d="M338.67322742417224,249.04044796178567 h-63.5966759256761 c-4.37622532993535,0 -6.969957519531391,-6.126942462954139 -5.596805183862899,-12.055134211981718 l15.822882740548557,-57.21129641609548 c0,-3.705797402394259 1.7303952197448467,-6.7195809553896915 3.8664099641180503,-6.7195809553896915 h34.901885518251405 c2.1360147443732074,0 3.8664099641180503,3.0137835529954304 3.8664099641180503,6.7195809553896915 l18.82409509479419,57.21129641609548 C348.1866798527251,242.91350549883148 343.0475921140864,249.04044796178567 338.67322742417224,249.04044796178567 z" id="svg_21"/>
			<polygon fill="#3B2D3D" points="288.81349651538767,351.3085726883951 299.49726648745127,351.3085726883951 295.93598921154626,340.44042081692214 316.2879521425348,350.3219155256452 331.04071057750843,350.3219155256452 331.04071057750843,346.86378557910984 315.77798322425224,337.4754646480146 309.16344913770445,326.60737469804053 295.4281233854126,326.60737469804053 290.33913523028605,326.60737469804053 " id="svg_22"/>
			<g opacity="0.05" id="svg_23">
				<path fill="#D8D8D8" d="M303.31362446069846,33.780777006619886 c-1.1201052927810733,-0.19694388925449846 -2.2885872261141516,-0.29631924621777794 -3.5110277200629287,-0.29631924621777794 c-10.683795001908495,0 -19.38414774118472,8.497496432696343 -19.38414774118472,18.823499433517 v39.77182468137613 C284.59000392705013,58.28674003376434 295.1733243678125,41.24115607755408 303.31362446069846,33.780777006619886 z" id="svg_24"/>
			</g>
		</g>
		<path fill="#F7B58F" d="M375.25341024157416,95.3392935836911 L375.25341024157416,95.3392935836911 c1.017770091613368,0.6920138493988343 2.441159707855092,0.4444788693266663 3.205882756581043,-0.5438542262899456 l4.1213176470267,-5.631872502809805 c0.7126251281314819,-0.9883330956166084 0.4577174452228323,-2.37055396974221 -0.5600526463905389,-3.113158909958711 l0,0 c-1.017770091613368,-0.6920138493988343 -2.441159707855092,-0.4444788693266663 -3.205882756581043,0.5438542262899456 l-4.1213176470267,5.631872502809805 C373.98073246705184,93.21627459402079 374.2356401499597,94.64908655896417 375.25341024157416,95.3392935836911 z" id="svg_25"/>
		<polygon fill="#5B4F5F" points="300.0072044779081,352.2969326923635 310.6911290891003,352.2969326923635 307.1298518131953,341.42887370313883 327.4797116520349,351.3085726883951 342.23457317915745,351.3085726883951 342.23457317915745,347.85034985961147 326.9715674754698,338.46385561273246 320.3570643167477,327.59403186079044 306.62006846186705,327.59403186079044 301.5330596875865,327.59403186079044 " id="svg_26"/>
	</g>
	<g id="svg_27">
		<g id="svg_28">
			<rect id="XMLID_1321_" x="133.69025727418142" y="272.9519984122098" fill="#B8BEBC" width="11.39641976922179" height="47.28098280548077"/>
			<g id="svg_29">
				<path id="XMLID_1320_" fill="#5B4F5F" d="M130.28154504629805,272.95196567182245 h18.213805167830415 c3.0012123542456295,0 5.494469982695195,-2.37055396974221 5.494469982695195,-5.335553256592028 v-7.7079140510062985 c0,-2.9144081960321504 -2.441159707855092,-5.335553256592028 -5.494469982695195,-5.335553256592028 h-18.213805167830415 c-3.0012123542456295,0 -5.494469982695195,2.37055396974221 -5.494469982695195,5.335553256592028 v7.756698317151907 C124.78707506360298,270.53082061126287 127.2282347714586,272.95196567182245 130.28154504629805,272.95196567182245 z"/>
				<path id="XMLID_1319_" fill="#5B4F5F" d="M112.47335940309631,267.2713089028669 h53.828315814213276 c3.0012123542456295,0 5.494469982695195,-2.37055396974221 5.494469982695195,-5.335553256592028 v-7.756698317151907 c0,-2.9144081960321504 -2.441159707855092,-5.335553256592028 -5.494469982695195,-5.335553256592028 h-53.828315814213276 c-3.0012123542456295,0 -5.494469982695195,2.37055396974221 -5.494469982695195,5.335553256592028 v7.7079140510062985 C106.97888942040146,264.8501638423073 109.42190976827726,267.2713089028669 112.47335940309631,267.2713089028669 z"/>
				<path id="XMLID_1318_" fill="#5B4F5F" d="M146.66261979321607,320.2329536902784 v-20.355686755423566 c0,-0.8889577386533319 -0.7628624087047191,-1.629755854197771 -1.678297299150378,-1.629755854197771 h-11.243847648299038 c-0.9154348904456634,0 -1.678297299150378,0.7407981155444432 -1.678297299150378,1.629755854197771 v20.355686755423566 c0,0.8889577386533319 0.7628624087047191,1.629755854197771 1.678297299150378,1.629755854197771 h11.243847648299038 C145.89975738451125,321.86451636914825 146.66261979321607,321.1725025197498 146.66261979321607,320.2329536902784 z"/>
				<path id="XMLID_1317_" fill="#3B2D3D" d="M124.93964754534468,261.39190141998523 h77.38401848299794 c5.139087738640066,0 9.360879946813249,-4.050900914757646 9.360879946813249,-9.090134925131892 v-3.4094781561764855 c0,-4.990449744228646 -4.171554927599941,-9.090134925131892 -9.360879946813249,-9.090134925131892 h-77.38401848299794 c-5.139087738640066,0 -9.360879946813249,4.050900914757646 -9.360879946813249,9.090134925131892 v3.4094781561764855 C115.57690695850924,257.29040941440996 119.80055980670409,261.39190141998523 124.93964754534468,261.39190141998523 z"/>
				<path id="XMLID_1316_" fill="#3B2D3D" d="M91.05553211870567,248.94107260482255 h70.20939056113114 c2.238349945540915,0 4.0189824458589944,-1.7779154773066554 4.0189824458589944,-3.902741291648758 c0,0 2.2885872261141516,-41.10526128935611 2.2885872261141516,-54.84074244635328 c0,-13.932425046251646 -2.2885872261141516,-55.679109094188924 -2.2885872261141516,-55.679109094188924 c0,-2.173610080487711 -1.8308697808913208,-3.902741291648758 -4.0189824458589944,-3.902741291648758 h-70.20939056113114 c-2.238349945540915,0 -4.0189824458589944,1.7779154773066554 -4.0189824458589944,3.902741291648758 c0,0 2.2885872261141516,41.797275138754934 2.2885872261141516,55.679109094188924 c0,13.684890066179486 -2.2885872261141516,54.84074244635328 -2.2885872261141516,54.84074244635328 C87.03654967284706,247.16315712751555 88.81718217316434,248.94107260482255 91.05553211870567,248.94107260482255 z"/>
				<path id="XMLID_1315_" fill="#4C4152" d="M89.27489961838778,190.14880460067496 c0,-13.932425046251646 -2.2885872261141516,-55.679109094188924 -2.2885872261141516,-55.679109094188924 c0,-2.173610080487711 1.8308697808913208,-3.902741291648758 4.0189824458589944,-3.902741291648758 h1.9834422626322632 c2.238349945540915,0 4.0189824458589944,1.7779154773066554 4.0189824458589944,3.902741291648758 c0,0 2.2885872261141516,41.797275138754934 2.2885872261141516,55.679109094188924 c0,10.770481870147334 -1.3731523356684914,38.23963735946959 -2.035540183226732,49.70213307901574 h26.761585425365688 c5.139087738640066,0 9.360879946813249,4.050900914757646 9.360879946813249,9.090134925131892 v3.4094781561764855 c0,4.990449744228646 -4.171554927599941,9.090134925131892 -9.360879946813249,9.090134925131892 h-34.64697783534273 c-1.3731523356684914,0 -2.4932576284495616,-1.0877084525798868 -2.4932576284495616,-2.4211450605598808 v-10.029683754602898 c0,-0.8401734725077213 0.15257248174094407,-1.629755854197771 0.3051449634818884,-2.37055396974221 c-0.20280976231418163,-0.49326313547227596 -0.3051449634818884,-0.9883330956166084 -0.3051449634818884,-1.5809715880521618 C87.03654967284706,244.989547047028 89.27489961838778,203.83369466685414 89.27489961838778,190.14880460067496 z"/>
				<polygon id="XMLID_1314_" fill="#5B4F5F" points="132.0620438149199,313.168335076371 85.6115191715071,321.864497493269 85.6115191715071,329.3737176593718 89.88524984067772,329.81822113889984 89.88524984067772,325.8160179426782 132.0620438149199,319.195835696381 "/>
				<polygon id="XMLID_1313_" fill="#5B4F5F" points="146.66268373909406,313.168335076371 193.1653295008,321.864497493269 193.1653295008,329.3737176593718 188.89158336771652,329.81822113889984 188.89158336771652,325.8160179426782 146.66268373909406,319.195835696381 "/>
				<polygon id="XMLID_1312_" fill="#5B4F5F" points="132.0620438149199,312.72383159684296 116.59465930692386,321.864497493269 116.59465930692386,329.3737176593718 120.8688384295674,329.81822113889984 120.8688384295674,325.8160179426782 132.0620438149199,318.8001573186998 "/>
				<polygon id="XMLID_1311_" fill="#5B4F5F" points="146.66268373909406,312.72383159684296 162.18050379888155,321.864497493269 162.18050379888155,329.3737176593718 157.9065566349309,329.81822113889984 157.9065566349309,325.8160179426782 146.66268373909406,318.8001573186998 "/>
				<path id="XMLID_1310_" fill="#5B4F5F" d="M191.3328654229302,327.44579778114047 c4.6813702934172365,0 8.495682336940828,3.705797402394259 8.495682336940828,8.249961452624179 h-17.09556051507057 C182.73484788482244,331.1515951835347 186.60125784894012,327.44579778114047 191.3328654229302,327.44579778114047 z"/>
				<path id="XMLID_1309_" fill="#5B4F5F" d="M160.29925050881835,327.44579778114047 c4.6813702934172365,0 8.495682336940828,3.705797402394259 8.495682336940828,8.249961452624179 h-17.09556051507057 C151.80170753185593,331.1515951835347 155.61788021540067,327.44579778114047 160.29925050881835,327.44579778114047 z"/>
				<path id="XMLID_1308_" fill="#5B4F5F" d="M118.42740747103517,327.44579778114047 c4.6813702934172365,0 8.495682336940828,3.705797402394259 8.495682336940828,8.249961452624179 h-17.09556051507057 C109.92986449407337,331.1515951835347 113.74603717761842,327.44579778114047 118.42740747103517,327.44579778114047 z"/>
				<path id="XMLID_1307_" fill="#5B4F5F" d="M87.49426711806962,327.44579778114047 c4.6813702934172365,0 8.495682336940828,3.705797402394259 8.495682336940828,8.249961452624179 h-17.09556051507057 C78.94648686053463,331.1515951835347 82.76265954407897,327.44579778114047 87.49426711806962,327.44579778114047 z"/>
				<circle id="XMLID_1306_" fill="#B8BEBC" cx="87.49424144708526" cy="335.7463197769898" r="2.9575284245802322"/>
				<circle id="XMLID_1305_" fill="#B8BEBC" cx="191.33288513415803" cy="335.7463197769898" r="2.9575284245802322"/>
				<circle id="XMLID_1304_" fill="#B8BEBC" cx="118.42742476623394" cy="335.7463197769898" r="2.9575284245802322"/>
				<circle id="XMLID_1303_" fill="#B8BEBC" cx="160.29922279726733" cy="335.7463197769898" r="2.9575284245802322"/>
			</g>
		</g>
		<g id="svg_30">
			<path fill="#F7B58F" d="M181.51426803089433,340.7368000688108 l-5.392134781527486,1.8285065681243262 c-3.1537848359865763,1.0877084525798868 -6.664812556049504,-0.5926384924355544 -7.78491784883057,-3.6552063115765923 l-3.8664099641180503,-10.869857227110613 c-1.1201052927810733,-3.0625678191410426 0.6102899269637762,-6.472045975317524 3.764074762950346,-7.55975442789741 l5.392134781527486,-1.8285065681243262 c3.1537848359865763,-1.0877084525798868 6.664812556049504,0.5926384924355544 7.78491784883057,3.6552063115765923 l3.8664099641180503,10.869857227110613 C186.34821080605184,336.29020455087215 184.6680528668808,339.64909161623115 181.51426803089433,340.7368000688108 z" id="svg_31"/>
			<path fill="#F7B58F" d="M198.04977589957412,342.6140909030809 l-5.544707263268432,-1.384027698797666 c-3.256120037154278,-0.7913892063621124 -5.239562299786542,-4.050900914757646 -4.426462610508589,-7.212844090861965 l2.9007377930991565,-11.166176473328388 c0.8149603292991886,-3.1619431761043195 4.171554927599941,-5.088018276519859 7.427674964754216,-4.298435894829814 l5.544707263268432,1.384027698797666 c3.256120037154278,0.7913892063621124 5.239562299786542,4.050900914757646 4.426462610508589,7.212844090861965 l-2.9007377930991565,11.166176473328388 C204.612253254456,341.47759818435543 201.30589593672826,343.40367328477083 198.04977589957412,342.6140909030809 z" id="svg_32"/>
			<g id="svg_33">
				<g id="svg_34">
					<path fill="#EAA583" d="M144.52660504884295,151.86038297505945 h-1.9834422626322632 c-2.5955928296172694,0 -4.6813702934172365,-2.0254504573788217 -4.6813702934172365,-4.545970874901978 v-7.411594804788518 c0,-2.5205204175231564 2.085777463799969,-4.545970874901978 4.6813702934172365,-4.545970874901978 h1.9834422626322632 c2.5955928296172694,0 4.6813702934172365,2.0254504573788217 4.6813702934172365,4.545970874901978 v7.411594804788518 C149.2079753422594,149.83493251768073 147.12219787846018,151.86038297505945 144.52660504884295,151.86038297505945 z" id="svg_35"/>
					<path fill="#874A39" d="M157.70365767920046,115.69498033911447 h-28.28731024277514 c-3.3584552383219863,0 -6.1047599096589655,-2.668680040632046 -6.1047599096589655,-5.928191749027584 v-12.548397347453987 c0,-3.261318533067599 2.7481653113582123,-5.928191749027584 6.1047599096589655,-5.928191749027584 h28.28731024277514 c3.3584552383219863,0 6.1047599096589655,2.668680040632046 6.1047599096589655,5.928191749027584 v12.548397347453987 C163.8084175888598,113.02810712315437 161.06211291752308,115.69498033911447 157.70365767920046,115.69498033911447 z" id="svg_36"/>
					<path fill="#F7B58F" d="M146.66261979321607,140.4466715216591 h-6.207095110826671 c-8.090062812312457,0 -14.702777447767497,-6.423261709171913 -14.702777447767497,-14.277528558615037 v-26.086934615196654 c0,-3.9533323824664293 3.3584552383219863,-7.212844090861965 7.427674964754216,-7.212844090861965 h20.757300076853216 c4.1213176470267,0 7.427674964754216,3.261318533067599 7.427674964754216,7.212844090861965 v26.086934615196654 C161.3672578810044,134.02521663715916 154.75268260552838,140.4466715216591 146.66261979321607,140.4466715216591 z" id="svg_37"/>
					<g id="svg_38">
						<path fill="#0A0A0A" d="M136.28396975478972,125.13202560128197 c0.10233520116770645,3.705797402394259 3.256120037154278,6.668989864572024 7.072292720699092,6.668989864572024 c3.8664099641180503,0 6.969957519531391,-2.964999286849822 7.072292720699092,-6.668989864572024 H136.28396975478972 z" id="svg_39"/>
					</g>
					<g id="svg_40">
						<g id="svg_41">
							<defs transform="translate(190.84390258789062,589.531982421875) scale(0.0969090685248375,-3.3675966262817383) translate(-190.84390258789062,-589.531982421875) translate(1899.7188720703125,45.88517379760742) scale(8.764056205749512,-0.3406272530555725) translate(-1899.7188720703125,-45.88517379760742) translate(286.3525695800781,-134.70787048339844) scale(-1.0156751871109009) translate(-286.3525695800781,134.70787048339844) translate(-281.93316650390625,-88.31640625) scale(-0.8662209510803223) translate(281.93316650390625,88.31640625) translate(325.4749755859375,101.95597076416016) scale(-0.9862887859344482,0.49547260999679565) translate(-325.4749755859375,-101.95597076416016) translate(-11.64863395690918,426.7204895019531) scale(1.6788500547409058) translate(11.64863395690918,-426.7204895019531) translate(-325.2895812988281,254.1742706298828) scale(1.3234833478927612) translate(325.2895812988281,-254.1742706298828) translate(72.5682144165039,192.04946899414062) scale(1,1.3971794843673706) translate(-72.5682144165039,-192.04946899414062) translate(-245.7828826904297,137.45509338378906) scale(0.7410357594490051) translate(245.7828826904297,-137.45509338378906) translate(-13.323697090148926,185.49053955078125) scale(0.7639293074607849) translate(13.323697090148926,-185.49053955078125) translate(-335.7921142578125,242.81112670898438) scale(1.0386277437210083) translate(335.7921142578125,-242.81112670898438) translate(-4.952519416809082,12.835387229919434) scale(-1.047234296798706,0.9628089070320129) translate(4.952519416809082,-12.835387229919434) translate(4.729155540466309,234.27650451660156) scale(-1.4377785921096802) translate(-4.729155540466309,-234.27650451660156) translate(-321.6403503417969,-162.94337463378906) scale(-0.8363591432571411) translate(321.6403503417969,162.94337463378906) translate(702.923095703125,-26.120664596557617) scale(-0.7876160144805908) translate(-702.923095703125,26.120664596557617) translate(-1210.8204345703125,33.16421127319336) scale(-1.220313549041748) translate(1210.8204345703125,-33.16421127319336) translate(992.2207641601562,-27.176795959472656) scale(-1.1361825466156006,1) translate(-992.2207641601562,27.176795959472656) translate(-873.2933349609375,-27.176795959472656) scale(2.1684155464172363,1) translate(873.2933349609375,27.176795959472656) translate(-402.7333984375,-27.176795959472656) scale(0.9097384810447693,1) translate(402.7333984375,27.176795959472656) translate(-124.34031677246094,-27.176795959472656) scale(-0.3890373408794403,1) translate(124.34031677246094,27.176795959472656) translate(1.259145736694336,-27.176795959472656) scale(1,1.0891244411468506) translate(-1.259145736694336,27.176795959472656) translate(1.259145736694336,195.992431640625) scale(1,0.8670241832733154) translate(-1.259145736694336,-195.992431640625) translate(1.259145736694336,5.10655403137207) scale(0.9760673642158508,1) translate(-1.259145736694336,-5.10655403137207) translate(1.2900058031082153,226.0518341064453) scale(1,1.0182673931121826) translate(-1.2900058031082153,-226.0518341064453) translate(1.2900058031082153,1.0512511730194092) scale(1,1.0119597911834717) translate(-1.2900058031082153,-1.0512511730194092) translate(1.2900058031082153,1.0388308763504028) scale(1.3963974714279175,1.3604633808135986) translate(-1.2900058031082153,-1.0388308763504028) translate(0.9238154292106628,0.7635846138000488) scale(1.2203245162963867,1.1755257844924927) translate(-0.9238154292106628,-0.7635846138000488) translate(0.7570266127586365,0.6495673656463623) scale(0.7703351378440857,0.8220469951629639) translate(-0.7570266127586365,-0.6495673656463623) translate(0.9827237725257874,0.7901835441589355) scale(1.3998128175735474,1.3160043954849243) translate(-0.9827237725257874,-0.7901835441589355) translate(0.7020477652549744,0.6004430651664734) scale(1.0073866844177246,1.0415962934494019) translate(-0.7020477652549744,-0.6004430651664734) translate(0.6968916654586792,0.576465368270874) scale(1.0134429931640625,1.014521837234497) translate(-0.6968916654586792,-0.576465368270874) ">
								<path id="SVGID_1_" d="M263.402,658.219c0.055,2.051,1.75,3.691,3.801,3.691c2.078,0,3.746-1.641,3.801-3.691H263.402z"/>
							</defs>
							<clipPath id="SVGID_2_" transform="translate(190.84390258789062,589.531982421875) scale(0.0969090685248375,-3.3675966262817383) translate(-190.84390258789062,-589.531982421875) translate(1899.7188720703125,45.88517379760742) scale(8.764056205749512,-0.3406272530555725) translate(-1899.7188720703125,-45.88517379760742) translate(286.3525695800781,-134.70787048339844) scale(-1.0156751871109009) translate(-286.3525695800781,134.70787048339844) translate(-281.93316650390625,-88.31640625) scale(-0.8662209510803223) translate(281.93316650390625,88.31640625) translate(325.4749755859375,101.95597076416016) scale(-0.9862887859344482,0.49547260999679565) translate(-325.4749755859375,-101.95597076416016) translate(-11.64863395690918,426.7204895019531) scale(1.6788500547409058) translate(11.64863395690918,-426.7204895019531) translate(-325.2895812988281,254.1742706298828) scale(1.3234833478927612) translate(325.2895812988281,-254.1742706298828) translate(72.5682144165039,192.04946899414062) scale(1,1.3971794843673706) translate(-72.5682144165039,-192.04946899414062) translate(-245.7828826904297,137.45509338378906) scale(0.7410357594490051) translate(245.7828826904297,-137.45509338378906) translate(-13.323697090148926,185.49053955078125) scale(0.7639293074607849) translate(13.323697090148926,-185.49053955078125) translate(-335.7921142578125,242.81112670898438) scale(1.0386277437210083) translate(335.7921142578125,-242.81112670898438) translate(-4.952519416809082,12.835387229919434) scale(-1.047234296798706,0.9628089070320129) translate(4.952519416809082,-12.835387229919434) translate(4.729155540466309,234.27650451660156) scale(-1.4377785921096802) translate(-4.729155540466309,-234.27650451660156) translate(-321.6403503417969,-162.94337463378906) scale(-0.8363591432571411) translate(321.6403503417969,162.94337463378906) translate(702.923095703125,-26.120664596557617) scale(-0.7876160144805908) translate(-702.923095703125,26.120664596557617) translate(-1210.8204345703125,33.16421127319336) scale(-1.220313549041748) translate(1210.8204345703125,-33.16421127319336) translate(992.2207641601562,-27.176795959472656) scale(-1.1361825466156006,1) translate(-992.2207641601562,27.176795959472656) translate(-873.2933349609375,-27.176795959472656) scale(2.1684155464172363,1) translate(873.2933349609375,27.176795959472656) translate(-402.7333984375,-27.176795959472656) scale(0.9097384810447693,1) translate(402.7333984375,27.176795959472656) translate(-124.34031677246094,-27.176795959472656) scale(-0.3890373408794403,1) translate(124.34031677246094,27.176795959472656) translate(1.259145736694336,-27.176795959472656) scale(1,1.0891244411468506) translate(-1.259145736694336,27.176795959472656) translate(1.259145736694336,195.992431640625) scale(1,0.8670241832733154) translate(-1.259145736694336,-195.992431640625) translate(1.259145736694336,5.10655403137207) scale(0.9760673642158508,1) translate(-1.259145736694336,-5.10655403137207) translate(1.2900058031082153,226.0518341064453) scale(1,1.0182673931121826) translate(-1.2900058031082153,-226.0518341064453) translate(1.2900058031082153,1.0512511730194092) scale(1,1.0119597911834717) translate(-1.2900058031082153,-1.0512511730194092) translate(1.2900058031082153,1.0388308763504028) scale(1.3963974714279175,1.3604633808135986) translate(-1.2900058031082153,-1.0388308763504028) translate(0.9238154292106628,0.7635846138000488) scale(1.2203245162963867,1.1755257844924927) translate(-0.9238154292106628,-0.7635846138000488) translate(0.7570266127586365,0.6495673656463623) scale(0.7703351378440857,0.8220469951629639) translate(-0.7570266127586365,-0.6495673656463623) translate(0.9827237725257874,0.7901835441589355) scale(1.3998128175735474,1.3160043954849243) translate(-0.9827237725257874,-0.7901835441589355) translate(0.7020477652549744,0.6004430651664734) scale(1.0073866844177246,1.0415962934494019) translate(-0.7020477652549744,-0.6004430651664734) translate(0.6968916654586792,0.576465368270874) scale(1.0134429931640625,1.014521837234497) translate(-0.6968916654586792,-0.576465368270874) ">
								<use xlink:href="#SVGID_1_" overflow="visible" id="svg_42"/>
							</clipPath>
							<circle clip-path="url(#SVGID_2_)" fill="#EF5270" cx="143.35629174572958" cy="132.39359739717474" r="2.036404266316822" id="svg_43"/>
						</g>
						<g id="svg_44">
							<defs transform="translate(190.84390258789062,589.531982421875) scale(0.0969090685248375,-3.3675966262817383) translate(-190.84390258789062,-589.531982421875) translate(1899.7188720703125,45.88517379760742) scale(8.764056205749512,-0.3406272530555725) translate(-1899.7188720703125,-45.88517379760742) translate(286.3525695800781,-134.70787048339844) scale(-1.0156751871109009) translate(-286.3525695800781,134.70787048339844) translate(-281.93316650390625,-88.31640625) scale(-0.8662209510803223) translate(281.93316650390625,88.31640625) translate(325.4749755859375,101.95597076416016) scale(-0.9862887859344482,0.49547260999679565) translate(-325.4749755859375,-101.95597076416016) translate(-11.64863395690918,426.7204895019531) scale(1.6788500547409058) translate(11.64863395690918,-426.7204895019531) translate(-325.2895812988281,254.1742706298828) scale(1.3234833478927612) translate(325.2895812988281,-254.1742706298828) translate(72.5682144165039,192.04946899414062) scale(1,1.3971794843673706) translate(-72.5682144165039,-192.04946899414062) translate(-245.7828826904297,137.45509338378906) scale(0.7410357594490051) translate(245.7828826904297,-137.45509338378906) translate(-13.323697090148926,185.49053955078125) scale(0.7639293074607849) translate(13.323697090148926,-185.49053955078125) translate(-335.7921142578125,242.81112670898438) scale(1.0386277437210083) translate(335.7921142578125,-242.81112670898438) translate(-4.952519416809082,12.835387229919434) scale(-1.047234296798706,0.9628089070320129) translate(4.952519416809082,-12.835387229919434) translate(4.729155540466309,234.27650451660156) scale(-1.4377785921096802) translate(-4.729155540466309,-234.27650451660156) translate(-321.6403503417969,-162.94337463378906) scale(-0.8363591432571411) translate(321.6403503417969,162.94337463378906) translate(702.923095703125,-26.120664596557617) scale(-0.7876160144805908) translate(-702.923095703125,26.120664596557617) translate(-1210.8204345703125,33.16421127319336) scale(-1.220313549041748) translate(1210.8204345703125,-33.16421127319336) translate(992.2207641601562,-27.176795959472656) scale(-1.1361825466156006,1) translate(-992.2207641601562,27.176795959472656) translate(-873.2933349609375,-27.176795959472656) scale(2.1684155464172363,1) translate(873.2933349609375,27.176795959472656) translate(-402.7333984375,-27.176795959472656) scale(0.9097384810447693,1) translate(402.7333984375,27.176795959472656) translate(-124.34031677246094,-27.176795959472656) scale(-0.3890373408794403,1) translate(124.34031677246094,27.176795959472656) translate(1.259145736694336,-27.176795959472656) scale(1,1.0891244411468506) translate(-1.259145736694336,27.176795959472656) translate(1.259145736694336,195.992431640625) scale(1,0.8670241832733154) translate(-1.259145736694336,-195.992431640625) translate(1.259145736694336,5.10655403137207) scale(0.9760673642158508,1) translate(-1.259145736694336,-5.10655403137207) translate(1.2900058031082153,226.0518341064453) scale(1,1.0182673931121826) translate(-1.2900058031082153,-226.0518341064453) translate(1.2900058031082153,1.0512511730194092) scale(1,1.0119597911834717) translate(-1.2900058031082153,-1.0512511730194092) translate(1.2900058031082153,1.0388308763504028) scale(1.3963974714279175,1.3604633808135986) translate(-1.2900058031082153,-1.0388308763504028) translate(0.9238154292106628,0.7635846138000488) scale(1.2203245162963867,1.1755257844924927) translate(-0.9238154292106628,-0.7635846138000488) translate(0.7570266127586365,0.6495673656463623) scale(0.7703351378440857,0.8220469951629639) translate(-0.7570266127586365,-0.6495673656463623) translate(0.9827237725257874,0.7901835441589355) scale(1.3998128175735474,1.3160043954849243) translate(-0.9827237725257874,-0.7901835441589355) translate(0.7020477652549744,0.6004430651664734) scale(1.0073866844177246,1.0415962934494019) translate(-0.7020477652549744,-0.6004430651664734) translate(0.6968916654586792,0.576465368270874) scale(1.0134429931640625,1.014521837234497) translate(-0.6968916654586792,-0.576465368270874) ">
								<path id="SVGID_3_" d="M263.402,658.219c0.055,2.051,1.75,3.691,3.801,3.691c2.078,0,3.746-1.641,3.801-3.691H263.402z"/>
							</defs>
							<clipPath id="SVGID_4_" transform="translate(190.84390258789062,589.531982421875) scale(0.0969090685248375,-3.3675966262817383) translate(-190.84390258789062,-589.531982421875) translate(1899.7188720703125,45.88517379760742) scale(8.764056205749512,-0.3406272530555725) translate(-1899.7188720703125,-45.88517379760742) translate(286.3525695800781,-134.70787048339844) scale(-1.0156751871109009) translate(-286.3525695800781,134.70787048339844) translate(-281.93316650390625,-88.31640625) scale(-0.8662209510803223) translate(281.93316650390625,88.31640625) translate(325.4749755859375,101.95597076416016) scale(-0.9862887859344482,0.49547260999679565) translate(-325.4749755859375,-101.95597076416016) translate(-11.64863395690918,426.7204895019531) scale(1.6788500547409058) translate(11.64863395690918,-426.7204895019531) translate(-325.2895812988281,254.1742706298828) scale(1.3234833478927612) translate(325.2895812988281,-254.1742706298828) translate(72.5682144165039,192.04946899414062) scale(1,1.3971794843673706) translate(-72.5682144165039,-192.04946899414062) translate(-245.7828826904297,137.45509338378906) scale(0.7410357594490051) translate(245.7828826904297,-137.45509338378906) translate(-13.323697090148926,185.49053955078125) scale(0.7639293074607849) translate(13.323697090148926,-185.49053955078125) translate(-335.7921142578125,242.81112670898438) scale(1.0386277437210083) translate(335.7921142578125,-242.81112670898438) translate(-4.952519416809082,12.835387229919434) scale(-1.047234296798706,0.9628089070320129) translate(4.952519416809082,-12.835387229919434) translate(4.729155540466309,234.27650451660156) scale(-1.4377785921096802) translate(-4.729155540466309,-234.27650451660156) translate(-321.6403503417969,-162.94337463378906) scale(-0.8363591432571411) translate(321.6403503417969,162.94337463378906) translate(702.923095703125,-26.120664596557617) scale(-0.7876160144805908) translate(-702.923095703125,26.120664596557617) translate(-1210.8204345703125,33.16421127319336) scale(-1.220313549041748) translate(1210.8204345703125,-33.16421127319336) translate(992.2207641601562,-27.176795959472656) scale(-1.1361825466156006,1) translate(-992.2207641601562,27.176795959472656) translate(-873.2933349609375,-27.176795959472656) scale(2.1684155464172363,1) translate(873.2933349609375,27.176795959472656) translate(-402.7333984375,-27.176795959472656) scale(0.9097384810447693,1) translate(402.7333984375,27.176795959472656) translate(-124.34031677246094,-27.176795959472656) scale(-0.3890373408794403,1) translate(124.34031677246094,27.176795959472656) translate(1.259145736694336,-27.176795959472656) scale(1,1.0891244411468506) translate(-1.259145736694336,27.176795959472656) translate(1.259145736694336,195.992431640625) scale(1,0.8670241832733154) translate(-1.259145736694336,-195.992431640625) translate(1.259145736694336,5.10655403137207) scale(0.9760673642158508,1) translate(-1.259145736694336,-5.10655403137207) translate(1.2900058031082153,226.0518341064453) scale(1,1.0182673931121826) translate(-1.2900058031082153,-226.0518341064453) translate(1.2900058031082153,1.0512511730194092) scale(1,1.0119597911834717) translate(-1.2900058031082153,-1.0512511730194092) translate(1.2900058031082153,1.0388308763504028) scale(1.3963974714279175,1.3604633808135986) translate(-1.2900058031082153,-1.0388308763504028) translate(0.9238154292106628,0.7635846138000488) scale(1.2203245162963867,1.1755257844924927) translate(-0.9238154292106628,-0.7635846138000488) translate(0.7570266127586365,0.6495673656463623) scale(0.7703351378440857,0.8220469951629639) translate(-0.7570266127586365,-0.6495673656463623) translate(0.9827237725257874,0.7901835441589355) scale(1.3998128175735474,1.3160043954849243) translate(-0.9827237725257874,-0.7901835441589355) translate(0.7020477652549744,0.6004430651664734) scale(1.0073866844177246,1.0415962934494019) translate(-0.7020477652549744,-0.6004430651664734) translate(0.6968916654586792,0.576465368270874) scale(1.0134429931640625,1.014521837234497) translate(-0.6968916654586792,-0.576465368270874) ">
								<use xlink:href="#SVGID_3_" overflow="visible" id="svg_45"/>
							</clipPath>
							<path clip-path="url(#SVGID_4_)" fill="#F9F9F9" d="M148.3427777323874,127.106884967843 h-10.023267794371485 c-0.9154348904456634,0 -1.678297299150378,-0.7407981155444432 -1.678297299150378,-1.629755854197771 v-0.6920138493988343 c0,-0.8889577386533319 0.7628624087047191,-1.629755854197771 1.678297299150378,-1.629755854197771 h10.023267794371485 c0.9154348904456634,0 1.678297299150378,0.7407981155444432 1.678297299150378,1.629755854197771 v0.6920138493988343 C150.0210750315387,126.36608685229854 149.25821262283378,127.106884967843 148.3427777323874,127.106884967843 z" id="svg_46"/>
						</g>
					</g>
					<path fill="#262626" d="M138.01436497453412,106.25793507694726 h-3.103547555413339 c-0.35538224405512536,0 -0.6605272075370131,-0.29631924621777794 -0.6605272075370131,-0.6414227585811647 v-0.29631924621777794 c0,-0.3451035123633873 0.3051449634818884,-0.6414227585811647 0.6605272075370131,-0.6414227585811647 h3.103547555413339 c0.35538224405512536,0 0.6605272075370131,0.29631924621777794 0.6605272075370131,0.6414227585811647 v0.29631924621777794 C138.67675282209228,105.96161583072949 138.36974721858937,106.25793507694726 138.01436497453412,106.25793507694726 z" id="svg_47"/>
					<path fill="#262626" d="M151.80170753185593,106.25793507694726 h-3.103547555413339 c-0.35538224405512536,0 -0.6605272075370131,-0.29631924621777794 -0.6605272075370131,-0.6414227585811647 v-0.29631924621777794 c0,-0.3451035123633873 0.3051449634818884,-0.6414227585811647 0.6605272075370131,-0.6414227585811647 h3.103547555413339 c0.35538224405512536,0 0.6605272075370131,0.29631924621777794 0.6605272075370131,0.6414227585811647 v0.29631924621777794 C152.46409537941418,105.96161583072949 152.1589504159328,106.25793507694726 151.80170753185593,106.25793507694726 z" id="svg_48"/>
					<ellipse fill="#262626" cx="136.43658576905983" cy="111.74351268602949" rx="1.0177700776989518" ry="1.5809715107735576" id="svg_49"/>
					<ellipse fill="#262626" cx="150.22572041735853" cy="111.74351268602949" rx="1.0177700776989518" ry="1.5809715107735576" id="svg_50"/>
					<circle fill="#EA9E7D" cx="141.1179353744004" cy="119.59772411824171" r="0.5815764393619247" id="svg_51"/>
					<circle fill="#EA9E7D" cx="145.5946313187611" cy="119.59772411824171" r="0.5815764393619247" id="svg_52"/>
					<path fill="#EAA583" d="M143.8139799207118,120.78299861563438 h-0.9154348904456634 c-1.1703425733543145,0 -2.1881126649676768,-0.939548829471001 -2.1881126649676768,-2.124825814342103 v-3.6552063115765923 c0,-1.1364927187254996 0.9675328110401313,-2.124825814342103 2.1881126649676768,-2.124825814342103 h0.9154348904456634 c1.1703425733543145,0 2.1881126649676768,0.939548829471001 2.1881126649676768,2.124825814342103 v3.6552063115765923 C146.00209258567943,119.84525661083542 144.9843224940657,120.78299861563438 143.8139799207118,120.78299861563438 z" id="svg_53"/>
					<path fill="#874A39" d="M159.3819549783509,100.72543793110061 H132.3170852295249 c-6.054522629085729,0 -11.041037885984853,-4.842290121119754 -11.041037885984853,-10.721697604001726 v-3.113158909958711 c0,-2.124825814342103 1.7806325003180847,-3.902741291648758 4.0189824458589944,-3.902741291648758 h27.06673038884758 c6.054522629085729,0 11.041037885984853,4.842290121119754 11.041037885984853,10.721697604001726 v3.113158909958711 C163.40279806423138,98.99630671993945 161.57006764331945,100.72543793110061 159.3819549783509,100.72543793110061 z" id="svg_54"/>
				</g>
				<g id="svg_55">
					<ellipse fill="#E08585" cx="132.82500215667503" cy="117.6716945172234" rx="3.4589296069077315" ry="2.7662486216437983" id="svg_56"/>
				</g>
				<g id="svg_57">
					<ellipse fill="#E08585" cx="154.7024163617192" cy="117.6716945172234" rx="3.4589296069077315" ry="2.7662486216437983" id="svg_58"/>
				</g>
			</g>
			<path fill="#7F00FF" d="M176.47751549342195,232.6380935888288 h-60.28845796792737 c-5.749377665603842,0 -10.42888731899984,-4.545970874901978 -10.42888731899984,-10.127252286894109 v-68.52563251253275 c0,-5.583088236664193 4.6813702934172365,-10.127252286894109 10.42888731899984,-10.127252286894109 h60.28845796792737 c5.749377665603842,0 10.42888731899984,4.545970874901978 10.42888731899984,10.127252286894109 v68.52563251253275 C186.85616553184826,228.09212271392641 182.1747952384312,232.6380935888288 176.47751549342195,232.6380935888288 z" id="svg_59"/>
			<path fill="#141414" d="M236.30825601612665,232.34177434261076 c-0.5600526463905389,-7.65732296018863 -5.901950147344785,-13.73548115699716 -12.31185502048564,-13.73548115699716 h-65.27497322482648 c-6.817385037790446,0 -12.3639529410801,6.7683652215353005 -12.3639529410801,15.068917764977144 l0,0 c0,8.300552543441846 5.544707263268432,15.068917764977144 12.3639529410801,15.068917764977144 h47.569122782792135 l-17.55327796029341,65.60941749182854 c-2.238349945540915,8.448712166550735 1.5778227380039038,17.587631357828233 8.495682336940828,20.30509566460589 l0,0 c6.919720238958154,2.7662485729232653 14.449730404880079,-1.9260751004155474 16.688080350420982,-10.326003000820675 l22.18255033311617,-82.95132069425667 C236.9185459430903,238.3187503577839 236.9185459430903,235.2073982724975 236.30825601612665,232.34177434261076 z" id="svg_60"/>
			<path fill="#740AEF" d="M205.42535294373423,182.9359605098127 h-9.971169873777015 l-9.412977867407712,-29.34644632359219 c-2.340685146708619,-7.212844090861965 -9.971169873777015,-11.166176473328388 -16.9411273933084,-8.793815678914116 c-6.969957519531391,2.4211450605598808 -10.836367483649438,10.277218734675067 -8.495682336940828,17.53884709168263 l11.751802374095107,36.51050614830854 c0.8149603292991886,2.469929326705487 2.1881126649676768,4.545970874901978 3.968745165285758,6.126942462954139 c2.238349945540915,2.173610080487711 5.239562299786542,3.557637779285373 8.495682336940828,3.557637779285373 h20.604727595112273 c6.817385037790446,0 12.3639529410801,-5.780032125918694 12.3639529410801,-12.795932327526156 l0,0 C217.78930588481415,188.71599263573168 212.244598621545,182.9359605098127 205.42535294373423,182.9359605098127 z" id="svg_61"/>
			<path fill="#7F00FF" d="M177.595760146182,190.7414430931102 h-40.85407294616941 l-4.5287978116762915,-34.732590671001866 c-0.9675328110401313,-7.55975442789741 -7.78491784883057,-12.895307684489433 -15.060020331843836,-11.906974588872833 c-7.327200403607748,1.037117361762221 -12.46442750222658,8.004233297224072 -11.498755331207684,15.562180900449416 l4.934417336304659,38.14026200250631 c0.7126251281314819,5.335553256592028 4.273890128767646,9.534613794458563 8.852925221017168,11.214960739474003 c1.1703425733543145,0.5438542262899456 2.441159707855092,0.8889577386533319 3.816172683544815,0.8889577386533319 h54.286033259436124 c5.0869898180456,0 9.260405385666767,-4.298435894829814 9.260405385666767,-9.585204885276232 S182.68461060424855,190.7414430931102 177.595760146182,190.7414430931102 z" id="svg_62"/>
			<path opacity="0.1" enable-background="new    " d="M177.595760146182,190.7414430931102 h-40.85407294616941 l-4.5287978116762915,-34.732590671001866 c-0.9675328110401313,-7.55975442789741 -7.78491784883057,-12.895307684489433 -15.060020331843836,-11.906974588872833 c-7.327200403607748,1.037117361762221 -12.46442750222658,8.004233297224072 -11.498755331207684,15.562180900449416 l4.934417336304659,38.14026200250631 c0.7126251281314819,5.335553256592028 4.273890128767646,9.534613794458563 8.852925221017168,11.214960739474003 c1.1703425733543145,0.5438542262899456 2.441159707855092,0.8889577386533319 3.816172683544815,0.8889577386533319 h54.286033259436124 c5.0869898180456,0 9.260405385666767,-4.298435894829814 9.260405385666767,-9.585204885276232 S182.68461060424855,190.7414430931102 177.595760146182,190.7414430931102 z" id="svg_63"/>
			<path fill="#141414" d="M186.24587560488493,314.4529215643598 l-20.0967728693162,-86.70590236279652 c-0.8149603292991886,-3.6064220454309814 -2.6960673907637447,-6.620205598426411 -5.0869898180456,-8.745031412768517 c-2.340685146708619,-2.2729854374509917 -5.392134781527486,-3.705797402394259 -8.750590019849465,-3.705797402394259 h-33.06915509733882 c-7.427674964754216,0 -13.532434874413179,6.965309110789801 -13.532434874413179,15.46461236815819 l0,0 c0,8.497496432696343 6.1047599096589655,15.46461236815819 13.532434874413179,15.46461236815819 h20.656825515706743 c0.3051449634818884,0 0.6102899269637762,0.19694388925449846 0.6605272075370131,0.5438542262899456 l17.705850442034347,76.18295547272143 c2.035540183226732,8.793815678914116 10.023267794371485,14.080584669360539 17.705850442034347,11.758814965763943 l0,0 C183.70238069586196,332.3874632592234 188.33165306868446,323.2467372432739 186.24587560488493,314.4529215643598 z" id="svg_64"/>
			<g id="svg_65">
				<path fill="#E5E5E5" d="M189.45175836146583,209.2686232804095 h-53.26826316782275 c-0.8651976098724258,0 -1.5257248174094344,-0.6414227585811647 -1.5257248174094344,-1.4815962310888844 v-1.037117361762221 c0,-0.8401734725077213 0.6605272075370131,-1.4815962310888844 1.5257248174094344,-1.4815962310888844 h53.318500448395966 c0.8651976098724258,0 1.5257248174094344,0.6414227585811647 1.5257248174094344,1.4815962310888844 v1.037117361762221 C190.97748317887533,208.62720052182837 190.31509533131646,209.2686232804095 189.45175836146583,209.2686232804095 z" id="svg_66"/>
				<path fill="#CBCACC" d="M250.19793377461576,209.2686232804095 h-92.95199354063783 c-3.3584552383219863,0 -6.1047599096589655,-2.668680040632046 -6.1047599096589655,-5.928191749027584 v-52.86407625512005 c0,-3.261318533067599 2.7481653113582123,-5.928191749027584 6.1047599096589655,-5.928191749027584 h92.95199354063783 c3.3584552383219863,0 6.1047599096589655,2.668680040632046 6.1047599096589655,5.928191749027584 v52.86407625512005 C256.3026936842745,206.60175006444962 253.55638901293767,209.2686232804095 250.19793377461576,209.2686232804095 z" id="svg_67"/>
			</g>
			<g id="svg_68">
				<path fill="#F77C7C" d="M203.18700299819335,342.6628751692263 l-12.46442750222658,-1.4815962310888844 c-2.238349945540915,-0.29631924621777794 -3.764074762950346,-1.7779154773066554 -3.408692518895223,-3.3101027992132077 c0.40748016464959463,-1.532187321906553 2.5955928296172694,-2.6180889498143767 4.833942775158183,-2.3217697035966 l12.46442750222658,1.4815962310888844 c2.238349945540915,0.29631924621777794 3.764074762950346,1.7779154773066554 3.408692518895223,3.3101027992132077 C207.6134656087014,341.9220770536821 205.477450864328,342.9591944154442 203.18700299819335,342.6628751692263 z" id="svg_69"/>
				<g id="svg_70">
					<path fill="#DB6E6E" d="M189.39966044087123,365.9835612114997 c-6.054522629085729,-0.8401734725077213 -9.768360111462837,-5.631872502809805 -8.292872574626644,-10.622322247038452 l2.5955928296172694,-8.694440321950841 c1.4754875368361973,-4.990449744228646 7.632345367089632,-8.398121075733062 13.685007356154118,-7.55975442789741 s9.768360111462837,5.631872502809805 8.292872574626644,10.622322247038452 l-2.5955928296172694,8.694440321950841 C201.61104090021058,363.4630407939766 195.454183069957,366.8725189501531 189.39966044087123,365.9835612114997 z" id="svg_71"/>
					<path fill="#F77C7C" d="M189.80714060552134,364.6989088696655 c-6.054522629085729,-0.8401734725077213 -9.768360111462837,-5.631872502809805 -8.292872574626644,-10.622322247038452 l2.5955928296172694,-8.694440321950841 c1.4754875368361973,-4.990449744228646 7.632345367089632,-8.398121075733062 13.685007356154118,-7.55975442789741 s9.768360111462837,5.631872502809805 8.292872574626644,10.622322247038452 l-2.5955928296172694,8.694440321950841 C201.96642314426583,362.12960418599675 195.81142595403324,365.5372755175011 189.80714060552134,364.6989088696655 z" id="svg_72"/>
					<path fill="none" stroke="#FFFFFF" stroke-miterlimit="10" d="M199.32059303407564,347.55394955649166 " id="svg_73"/>
					<path fill="none" stroke="#DB6E6E" stroke-width="2" stroke-miterlimit="10" d="M186.34821080605184,346.0723533254029 c1.3229150550952558,-1.1852769848711087 14.907447850102903,0.04878426614560984 16.230362905198152,2.2729854374509917 " id="svg_74"/>
					<path fill="none" stroke="#DB6E6E" stroke-width="2" stroke-miterlimit="10" d="M185.38067799501263,349.3824561246162 c1.3229150550952558,-1.1852769848711087 14.907447850102903,0.04878426614560984 16.230362905198152,2.2729854374509917 " id="svg_75"/>
					<path fill="none" stroke="#DB6E6E" stroke-width="2" stroke-miterlimit="10" d="M184.41500582399345,352.64377465768354 c1.3229150550952558,-1.1852769848711087 14.907447850102903,0.04878426614560984 16.230362905198152,2.2729854374509917 " id="svg_76"/>
				</g>
			</g>
			<g id="svg_77">
				<path fill="#F77C7C" d="M183.49771029352692,341.37822282739216 l-12.566762703394287,0.8889577386533319 c-2.2885872261141516,0.148159623108889 -4.37622532993535,-0.7913892063621124 -4.629272372822767,-2.124825814342103 c-0.3051449634818884,-1.3334366079799949 1.3731523356684914,-2.5693046836687707 3.6115022812094013,-2.7174643067776563 l12.566762703394287,-0.8889577386533319 c2.2885872261141516,-0.148159623108889 4.37622532993535,0.7913892063621124 4.629272372822767,2.124825814342103 C187.4162181782386,339.9960019532663 185.73606023906754,341.2300632042834 183.49771029352692,341.37822282739216 z" id="svg_78"/>
				<g id="svg_79">
					<path fill="#DB6E6E" d="M180.19135297579854,362.7710269445777 c-6.15685783025343,0.3451035123633873 -11.751802374095107,-2.9144081960321504 -12.46442750222658,-7.263435181679634 l-1.2205798539275499,-7.55975442789741 c-0.7126251281314819,-4.347220160975421 3.7138374823771123,-8.152392920332964 9.870695312630541,-8.497496432696343 s11.751802374095107,2.9144081960321504 12.46442750222658,7.263435181679634 l1.2205798539275499,7.55975442789741 C190.77467341656154,358.57196640671117 186.29611288545846,362.4259234322143 180.19135297579854,362.7710269445777 z" id="svg_80"/>
					<path fill="#F77C7C" d="M179.98854321348426,361.63453422585235 c-6.15685783025343,0.3451035123633873 -11.751802374095107,-2.9144081960321504 -12.46442750222658,-7.263435181679634 l-1.2205798539275499,-7.55975442789741 c-0.7126251281314819,-4.347220160975421 3.7138374823771123,-8.152392920332964 9.870695312630541,-8.497496432696343 s11.751802374095107,2.9144081960321504 12.46442750222658,7.263435181679634 l1.2205798539275499,7.55975442789741 C190.57000301422542,357.4354736879859 186.14354040371705,361.289430713489 179.98854321348426,361.63453422585235 z" id="svg_81"/>
					<path fill="none" stroke="#FFFFFF" stroke-miterlimit="10" d="M181.8696502749495,346.0235690592572 " id="svg_82"/>
					<path fill="none" stroke="#DB6E6E" stroke-width="2" stroke-miterlimit="10" d="M168.79493284575892,347.0606864210195 c0.7628624087047191,-1.1852769848711087 14.297157923139135,-2.5205204175231564 16.48340994808557,-0.939548829471001 " id="svg_83"/>
					<path fill="none" stroke="#DB6E6E" stroke-width="2" stroke-miterlimit="10" d="M169.25265029098196,349.87571926008843 c0.7628624087047191,-1.1852769848711087 14.297157923139135,-2.5205204175231564 16.48340994808557,-0.939548829471001 " id="svg_84"/>
					<path fill="none" stroke="#DB6E6E" stroke-width="2" stroke-miterlimit="10" d="M169.7103677362048,352.7413431899751 c0.7628624087047191,-1.1852769848711087 14.297157923139135,-2.5205204175231564 16.48340994808557,-0.939548829471001 " id="svg_85"/>
				</g>
			</g>
		</g>
		<g id="svg_86">
			<path fill="#EDEDED" d="M56.15364660045434,358.76891029596567 h-5.952187427918025 c-1.9834422626322632,0 -3.5612650006361677,-1.5809715880521618 -3.5612650006361677,-3.4582624223220937 v-133.8893218489612 c0,-1.877290834269936 1.5778227380039038,-3.4582624223220937 3.5612650006361677,-3.4582624223220937 h5.952187427918025 c1.9834422626322632,0 3.5612650006361677,1.5809715880521618 3.5612650006361677,3.4582624223220937 v133.93810611510682 C59.714911601091366,357.2385297987311 58.086851582513454,358.76891029596567 56.15364660045434,358.76891029596567 z" id="svg_87"/>
			<path fill="#EDEDED" d="M338.62112950357715,358.76891029596567 h-5.952187427918025 c-1.9332049820590258,0 -3.5612650006361677,-1.5809715880521618 -3.5612650006361677,-3.4582624223220937 v-133.8893218489612 c0,-1.877290834269936 1.6280600185771439,-3.4582624223220937 3.5612650006361677,-3.4582624223220937 h5.952187427918025 c1.9332049820590258,0 3.5612650006361677,1.5809715880521618 3.5612650006361677,3.4582624223220937 v133.93810611510682 C342.1823945042135,357.2385297987311 340.6064324062308,358.76891029596567 338.62112950357715,358.76891029596567 z" id="svg_88"/>
			<path fill="#C9A57D" d="M354.9017296893486,224.63386029160458 H22.269531173816663 c-3.205882756581043,0 -5.851712866771547,-2.5693046836687707 -5.851712866771547,-5.682463593627472 v-4.002116648612034 c0,-3.113158909958711 2.645830110190507,-5.682463593627472 5.851712866771547,-5.682463593627472 h332.6321985155323 c3.205882756581043,0 5.851712866771547,2.5693046836687707 5.851712866771547,5.682463593627472 v4.002116648612034 C360.7534425561208,222.06455560793566 358.10761244593033,224.63386029160458 354.9017296893486,224.63386029160458 z" id="svg_89"/>
		</g>
	</g>
	<path fill="#EFEFEF" d="M81.33740928781658,44.007404650477426 h-38.81853276294268 c-14.245060002544665,0 -25.89638781549328,11.314336096437279 -25.89638781549328,25.147385785725643 v10.029683754602898 c0,13.833049689288375 11.65132781294863,25.147385785725643 25.89638781549328,25.147385785725643 h37.44538042727418 l9.920932593203778,9.63398915142184 v-11.066801116365108 c10.023267794371485,-3.4582624223220937 17.298370277384755,-12.795932327526156 17.298370277384755,-23.714573820782373 v-10.029683754602898 C107.18355982273572,55.32174074691471 95.53223200978795,44.007404650477426 81.33740928781658,44.007404650477426 z" id="svg_90"/>
	<path opacity="0.1" enable-background="new    " d="M82.50775186117083,62.782119817848816 h-44.26276546506462 c-1.5257248174094344,0 -2.798402591931451,-1.2358680756887785 -2.798402591931451,-2.7174643067776563 l0,0 c0,-1.4815962310888844 1.272677774522018,-2.7174643067776563 2.798402591931451,-2.7174643067776563 H82.50775186117083 c1.5257248174094344,0 2.798402591931451,1.2358680756887785 2.798402591931451,2.7174643067776563 l0,0 C85.30615445310222,61.54625174215996 84.03347667858016,62.782119817848816 82.50775186117083,62.782119817848816 z" id="svg_91"/>
	<path opacity="0.1" enable-background="new    " d="M73.85949704248894,74.14524018043173 h-44.26276546506462 c-1.5257248174094344,0 -2.798402591931451,-1.2358680756887785 -2.798402591931451,-2.7174643067776563 l0,0 c0,-1.4815962310888844 1.272677774522018,-2.7174643067776563 2.798402591931451,-2.7174643067776563 h44.26276546506462 c1.5257248174094344,0 2.798402591931451,1.2358680756887785 2.798402591931451,2.7174643067776563 l0,0 C76.65603899439921,72.90937210474296 75.38522185989785,74.14524018043173 73.85949704248894,74.14524018043173 z" id="svg_92"/>
	<path opacity="0.1" enable-background="new    " d="M81.99979713537505,85.50836054301452 h-44.26276546506462 c-1.5257248174094344,0 -2.798402591931451,-1.2358680756887785 -2.798402591931451,-2.7174643067776563 l0,0 c0,-1.4815962310888844 1.272677774522018,-2.7174643067776563 2.798402591931451,-2.7174643067776563 h44.26276546506462 c1.5257248174094344,0 2.798402591931451,1.2358680756887785 2.798402591931451,2.7174643067776563 l0,0 C84.79633908728543,84.27249246732576 83.52552195278427,85.50836054301452 81.99979713537505,85.50836054301452 z" id="svg_93"/>
	<path fill="#4C4152" d="M561.4123050057576,18.811234598606212 H252.28371123841617 c-3.1537848359865763,0 -5.697279745009371,-2.469929326705487 -5.697279745009371,-5.532497145846523 v-3.7545816685398714 c0,-3.0625678191410426 2.5434949090228,-5.532497145846523 5.697279745009371,-5.532497145846523 h309.1285937673421 c3.1537848359865763,0 5.697279745009371,2.469929326705487 5.697279745009371,5.532497145846523 v3.7545816685398714 C567.1095847507675,16.341305271900833 564.5660898417443,18.811234598606212 561.4123050057576,18.811234598606212 z" id="svg_94"/>
	<circle fill="#FF007A" cx="362.58432380024914" cy="26.716076079012215" r="0.7269705038979737" id="svg_95"/>
	<circle fill="#FF007A" cx="402.77784590299365" cy="26.716076079012215" r="0.7269705038979737" id="svg_96"/>
	<path opacity="0.05" enable-background="new    " d="M370.97952011280586,38.57247603692215 h-14.754875368361951 c-0.9675328110401313,0 -1.7806325003180847,-0.7913892063621124 -1.7806325003180847,-1.729131211161047 l0,0 c0,-0.939548829471001 0.8149603292991886,-1.729131211161047 1.7806325003180847,-1.729131211161047 h14.754875368361951 c0.9675328110401313,0 1.7806325003180847,0.7913892063621124 1.7806325003180847,1.729131211161047 l0,0 C372.7601526131239,37.782893655231995 371.94705292384657,38.57247603692215 370.97952011280586,38.57247603692215 z" id="svg_97"/>
	<path opacity="0.05" enable-background="new    " d="M368.43602520378363,44.502474610621945 h-14.754875368361951 c-0.9675328110401313,0 -1.7806325003180847,-0.7913892063621124 -1.7806325003180847,-1.729131211161047 l0,0 c0,-0.939548829471001 0.8149603292991886,-1.729131211161047 1.7806325003180847,-1.729131211161047 h14.754875368361951 c0.9675328110401313,0 1.7806325003180847,0.7913892063621124 1.7806325003180847,1.729131211161047 l0,0 C370.2166577041019,43.711085404259336 369.4016973748022,44.502474610621945 368.43602520378363,44.502474610621945 z" id="svg_98"/>
	<path opacity="0.05" enable-background="new    " d="M412.1908359430523,43.019071554860815 h-14.754875368361951 c-0.9675328110401313,0 -1.7806325003180847,-0.7913892063621124 -1.7806325003180847,-1.729131211161047 l0,0 c0,-0.939548829471001 0.8149603292991886,-1.729131211161047 1.7806325003180847,-1.729131211161047 h14.754875368361951 c0.9675328110401313,0 1.7806325003180847,0.7913892063621124 1.7806325003180847,1.729131211161047 l0,0 C413.9714684433696,42.22948917317068 413.15650811407073,43.019071554860815 412.1908359430523,43.019071554860815 z" id="svg_99"/>
	<path opacity="0.05" enable-background="new    " d="M407.61180085080247,37.090879805833175 h-14.754875368361951 c-0.9675328110401313,0 -1.7806325003180847,-0.7913892063621124 -1.7806325003180847,-1.729131211161047 l0,0 c0,-0.939548829471001 0.8149603292991886,-1.729131211161047 1.7806325003180847,-1.729131211161047 h14.754875368361951 c0.9675328110401313,0 1.7806325003180847,0.7913892063621124 1.7806325003180847,1.729131211161047 l0,0 C409.3924333511207,36.301297424143144 408.5774730218221,37.090879805833175 407.61180085080247,37.090879805833175 z" id="svg_100"/>
	<path opacity="0.05" enable-background="new    " d="M409.64548039400785,48.949070128560436 h-14.754875368361951 c-0.9675328110401313,0 -1.7806325003180847,-0.7913892063621124 -1.7806325003180847,-1.729131211161047 l0,0 c0,-0.939548829471001 0.8149603292991886,-1.729131211161047 1.7806325003180847,-1.729131211161047 h14.754875368361951 c0.9675328110401313,0 1.7806325003180847,0.7913892063621124 1.7806325003180847,1.729131211161047 l0,0 C411.4261128943264,48.15768092219832 410.61301320504805,48.949070128560436 409.64548039400785,48.949070128560436 z" id="svg_101"/>
	<g id="svg_102">
		<path id="XMLID_5_" fill="#EAA583" d="M493.6440741524816,150.22882029618992 L493.6440741524816,150.22882029618992 c-3.764074762950346,0.939548829471001 -7.632345367089632,-1.3334366079799949 -8.598017538108529,-4.990449744228646 l-5.0869898180456,-19.71245717217034 c-0.9675328110401313,-3.6552063115765923 1.3731523356684914,-7.411594804788518 5.139087738640066,-8.34933680958746 l0,0 c3.764074762950346,-0.939548829471001 7.632345367089632,1.3334366079799949 8.598017538108529,4.990449744228646 l5.0869898180456,19.71245717217034 C499.74883406214065,145.53649662285102 497.40814891543215,149.29107829139085 493.6440741524816,150.22882029618992 z"/>
		<path id="XMLID_7_" opacity="0.1" fill="#232323" enable-background="new    " d="M493.6440741524816,150.22882029618992 L493.6440741524816,150.22882029618992 c-3.764074762950346,0.939548829471001 -7.632345367089632,-1.3334366079799949 -8.598017538108529,-4.990449744228646 l-5.0869898180456,-19.71245717217034 c-0.9675328110401313,-3.6552063115765923 1.3731523356684914,-7.411594804788518 5.139087738640066,-8.34933680958746 l0,0 c3.764074762950346,-0.939548829471001 7.632345367089632,1.3334366079799949 8.598017538108529,4.990449744228646 l5.0869898180456,19.71245717217034 C499.74883406214065,145.53649662285102 497.40814891543215,149.29107829139085 493.6440741524816,150.22882029618992 z"/>
		<path fill="#141414" d="M466.2721988001527,104.7763388458583 h3.5612650006361677 c3.663600201803871,0 6.7150498366227405,-2.9144081960321504 6.7150498366227405,-6.520830241463131 v-2.37055396974221 c0,-3.557637779285373 -3.0012123542456295,-6.520830241463131 -6.7150498366227405,-6.520830241463131 h-3.5612650006361677 c-3.663600201803871,0 -6.7150498366227405,2.9144081960321504 -6.7150498366227405,6.520830241463131 v2.37055396974221 C459.5571489635301,101.86193064982606 462.55836131777517,104.7763388458583 466.2721988001527,104.7763388458583 z" id="svg_103"/>
		<path fill="#FAB08A" d="M485.7065838219109,386.386225408397 L485.7065838219109,386.386225408397 c-2.5434949090228,0 -4.579035092249528,-2.0254504573788217 -4.579035092249528,-4.446595517938702 v-4.446595517938702 c0,-2.4211450605598808 2.035540183226732,-4.446595517938702 4.579035092249528,-4.446595517938702 l0,0 c2.4932576284495616,0 4.579035092249528,2.0254504573788217 4.579035092249528,4.446595517938702 v4.446595517938702 C490.2856189141601,384.36077495101813 488.2500787309336,386.386225408397 485.7065838219109,386.386225408397 z" id="svg_104"/>
		<path fill="#FAB08A" d="M510.6372994663844,385.39969913745244 L510.6372994663844,385.39969913745244 c-2.5434949090228,0 -4.579035092249528,-2.0254504573788217 -4.579035092249528,-4.446595517938702 v-4.446595517938702 c0,-2.4211450605598808 2.035540183226732,-4.446595517938702 4.579035092249528,-4.446595517938702 l0,0 c2.4932576284495616,0 4.579035092249528,2.0254504573788217 4.579035092249528,4.446595517938702 v4.446595517938702 C515.2163345586347,383.37424868007366 513.1807943754073,385.39969913745244 510.6372994663844,385.39969913745244 z" id="svg_105"/>
		<path fill="#7F00FF" d="M487.3346438404872,233.23073208126414 h-15.36516529532573 c-3.5612650006361677,0 -3.5612650006361677,2.964999286849822 -3.5612650006361677,6.423261709171913 l8.648254818681764,130.03536482345805 c0,3.4582624223220937 2.9509750736723914,6.323886352208636 6.512240074308556,6.323886352208636 h3.764074762950346 c3.5612650006361677,0 6.512240074308556,-2.8656239298865422 6.512240074308556,-6.323886352208636 v-130.1329333557492 C493.8468839147964,236.0963560111505 490.8959088411238,233.23073208126414 487.3346438404872,233.23073208126414 z" id="svg_106"/>
		<path fill="#7F00FF" d="M514.1985644670206,236.195731368114 h-17.298370277384755 c-3.5612650006361677,0 -5.596805183862899,2.964999286849822 -5.596805183862899,6.423261709171913 l10.683795001908495,130.03536482345805 c0,3.4582624223220937 2.9509750736723914,6.323886352208636 6.512240074308556,6.323886352208636 h3.764074762950346 c3.5612650006361677,0 6.512240074308556,-2.8656239298865422 6.512240074308556,-6.323886352208636 l2.035540183226732,-130.1329333557492 C520.811279102476,239.05954847332853 517.7598294676577,236.195731368114 514.1985644670206,236.195731368114 z" id="svg_107"/>
		<path opacity="0.1" enable-background="new    " d="M514.1985644670206,236.195731368114 h-17.298370277384755 c-3.5612650006361677,0 -5.596805183862899,2.964999286849822 -5.596805183862899,6.423261709171913 l10.683795001908495,130.03536482345805 c0,3.4582624223220937 2.9509750736723914,6.323886352208636 6.512240074308556,6.323886352208636 h3.764074762950346 c3.5612650006361677,0 6.512240074308556,-2.8656239298865422 6.512240074308556,-6.323886352208636 l2.035540183226732,-130.1329333557492 C520.811279102476,239.05954847332853 517.7598294676577,236.195731368114 514.1985644670206,236.195731368114 z" id="svg_108"/>
		<path id="XMLID_2_" fill="#2C2C2D" d="M515.1642366380391,381.59452637809477 c0,0 1.8829677014857897,5.236177899628747 2.1881126649676768,8.34933680958746 c0.25490768290865085,3.113158909958711 0.25490768290865085,3.113158909958711 0.25490768290865085,3.113158909958711 s-12.109045258171458,7.55975442789741 -21.67273496729887,7.164059824716354 c-9.513452428554189,-0.4444788693266663 -8.648254818681764,-3.9533323824664293 -8.648254818681764,-3.9533323824664293 s14.449730404880079,-8.694440321950841 16.433172667512334,-10.522946890075165 c1.9332049820590258,-1.8285065681243262 1.7806325003180847,-4.150276271720923 1.7806325003180847,-4.150276271720923 H515.1642366380391 z"/>
		<path id="XMLID_1_" fill="#2C2C2D" d="M491.81134373156954,378.7794935390258 h-12.109045258171458 c0,0 0,4.347220160975421 -1.0680073721866057,5.18739363348314 s-13.074717429190358,0.8401734725077213 -17.653752521439877,4.643539407193198 s-1.9834422626322632,5.18739363348314 -1.9834422626322632,5.18739363348314 H492.7788765426097 c0,0 0.9675328110401313,-5.039234010374255 0,-7.856073674115185 C491.76110645099607,383.1267137000014 491.81134373156954,378.7794935390258 491.81134373156954,378.7794935390258 z"/>
		<path fill="#E24D4D" d="M511.6550695579981,245.5821855394638 h-37.750525390756096 c-2.7481653113582123,0 -5.03675253747236,-2.124825814342103 -5.139087738640066,-4.791699030302085 l-9.005497702758118,-97.9714541930882 c0,-3.261318533067599 17.50118003969894,-5.928191749027584 20.859635278020917,-5.928191749027584 l19.333910460611484,-0.49326313547227596 c3.3584552383219863,0 26.964395187679887,9.585204885276232 26.964395187679887,12.84471659367176 l-6.1047599096589655,90.41169976519076 C520.811279102476,245.5821855394638 517.7598294676577,245.5821855394638 511.6550695579981,245.5821855394638 z" id="svg_109"/>
		<path fill="#CBCACC" d="M497.3076743542858,217.91427933621492 h-37.39514314670095 c-0.9154348904456634,0 -1.678297299150378,-0.7407981155444432 -1.678297299150378,-1.629755854197771 v-0.7407981155444432 c0,-0.8889577386533319 0.7628624087047191,-1.629755854197771 1.678297299150378,-1.629755854197771 h37.39514314670095 c0.9154348904456634,0 1.678297299150378,0.7407981155444432 1.678297299150378,1.629755854197771 v0.7407981155444432 C498.93573437286324,217.17348122067034 498.1710113241366,217.91427933621492 497.3076743542858,217.91427933621492 z" id="svg_110"/>
		<path fill="#CBCACC" d="M509.1097140089546,216.92594624059825 h-51.89511083215428 c-3.3584552383219863,0 -6.1047599096589655,-2.668680040632046 -6.1047599096589655,-5.928191749027584 v-29.149502434337673 c0,-3.261318533067599 2.7481653113582123,-5.928191749027584 6.1047599096589655,-5.928191749027584 h51.89511083215428 c3.3584552383219863,0 6.1047599096589655,2.668680040632046 6.1047599096589655,5.928191749027584 v29.149502434337673 C515.2163345586347,214.25907302463813 512.4681692472758,216.92594624059825 509.1097140089546,216.92594624059825 z" id="svg_111"/>
		<circle fill="#EAA583" cx="455.1809083256351" cy="215.44434615279962" r="2.9087690159685735" id="svg_112"/>
		<g id="svg_113">
			<path fill="#EAA583" d="M458.08166142669415,212.72688570273166 L458.08166142669415,212.72688570273166 c-0.8149603292991886,0.7913892063621124 -0.8149603292991886,2.0254504573788217 0,2.8168396637409314 l3.1537848359865763,3.0625678191410426 c0.7628624087047191,0.7407981155444432 2.085777463799969,0.7407981155444432 2.8486398725046875,0 l0,0 c0.7628624087047191,-0.7407981155444432 0.7628624087047191,-2.0254504573788217 0,-2.7662485729232653 l-3.1537848359865763,-3.0625678191410426 C460.1153409698989,211.9373033210416 458.8445238353985,211.9373033210416 458.08166142669415,212.72688570273166 z" id="svg_114"/>
		</g>
		<circle fill="#EAA583" cx="503.0049227759793" cy="213.4676953689515" r="3.6366261578077683" id="svg_115"/>
		<path fill="#EAA583" d="M483.2654241140557,84.0267643119259 L483.2654241140557,84.0267643119259 c9.055734983331355,0 16.78855491156745,5.9787828398452465 19.181337978870534,14.080584669360539 c0.6102899269637762,-0.24753498007216784 1.272677774522018,-0.39569460318105587 1.9834422626322632,-0.39569460318105587 c2.9007377930991565,0 5.239562299786542,2.2729854374509917 5.239562299786542,5.088018276519859 s-2.340685146708619,5.088018276519859 -5.239562299786542,5.088018276519859 c-0.40748016464959463,0 -0.8149603292991886,-0.04878426614560984 -1.2205798539275499,-0.148159623108889 v4.643539407193198 c0,10.622322247038452 -8.953399782163649,19.36735365980695 -19.94420038757526,19.36735365980695 l0,0 c-10.938702684817153,0 -19.94420038757526,-8.694440321950841 -19.94420038757526,-19.36735365980695 v-8.992566392840677 C463.32122372648035,92.72120463387627 472.274623508644,84.0267643119259 483.2654241140557,84.0267643119259 z" id="svg_116"/>
		<ellipse opacity="0.2" enable-background="new    " cx="503.7678006681026" cy="102.9984329771483" rx="2.2383498094941663" ry="1.7779155981664925" id="svg_117"/>
		<g id="svg_118">
			<path fill="#191919" d="M475.5828414663929,118.11612539967425 c-0.4577174452228323,0.5926384924355544 -0.7126251281314819,1.3334366079799949 -0.7126251281314819,2.0742347235244343 c0,2.4211450605598808 2.6960673907637447,4.347220160975421 6.054522629085729,4.347220160975421 c3.3063573177275174,0 6.054522629085729,-1.9260751004155474 6.054522629085729,-4.347220160975421 c0,-0.7407981155444432 -0.25490768290865085,-1.4815962310888844 -0.7126251281314819,-2.0742347235244343 H475.5828414663929 z" id="svg_119"/>
		</g>
		<g id="svg_120">
			<g id="svg_121">
				<defs transform="translate(190.84390258789062,589.531982421875) scale(0.0969090685248375,-3.3675966262817383) translate(-190.84390258789062,-589.531982421875) translate(1899.7188720703125,45.88517379760742) scale(8.764056205749512,-0.3406272530555725) translate(-1899.7188720703125,-45.88517379760742) translate(286.3525695800781,-134.70787048339844) scale(-1.0156751871109009) translate(-286.3525695800781,134.70787048339844) translate(-281.93316650390625,-88.31640625) scale(-0.8662209510803223) translate(281.93316650390625,88.31640625) translate(325.4749755859375,101.95597076416016) scale(-0.9862887859344482,0.49547260999679565) translate(-325.4749755859375,-101.95597076416016) translate(-11.64863395690918,426.7204895019531) scale(1.6788500547409058) translate(11.64863395690918,-426.7204895019531) translate(-325.2895812988281,254.1742706298828) scale(1.3234833478927612) translate(325.2895812988281,-254.1742706298828) translate(72.5682144165039,192.04946899414062) scale(1,1.3971794843673706) translate(-72.5682144165039,-192.04946899414062) translate(-245.7828826904297,137.45509338378906) scale(0.7410357594490051) translate(245.7828826904297,-137.45509338378906) translate(-13.323697090148926,185.49053955078125) scale(0.7639293074607849) translate(13.323697090148926,-185.49053955078125) translate(-335.7921142578125,242.81112670898438) scale(1.0386277437210083) translate(335.7921142578125,-242.81112670898438) translate(-4.952519416809082,12.835387229919434) scale(-1.047234296798706,0.9628089070320129) translate(4.952519416809082,-12.835387229919434) translate(4.729155540466309,234.27650451660156) scale(-1.4377785921096802) translate(-4.729155540466309,-234.27650451660156) translate(-321.6403503417969,-162.94337463378906) scale(-0.8363591432571411) translate(321.6403503417969,162.94337463378906) translate(702.923095703125,-26.120664596557617) scale(-0.7876160144805908) translate(-702.923095703125,26.120664596557617) translate(-1210.8204345703125,33.16421127319336) scale(-1.220313549041748) translate(1210.8204345703125,-33.16421127319336) translate(992.2207641601562,-27.176795959472656) scale(-1.1361825466156006,1) translate(-992.2207641601562,27.176795959472656) translate(-873.2933349609375,-27.176795959472656) scale(2.1684155464172363,1) translate(873.2933349609375,27.176795959472656) translate(-402.7333984375,-27.176795959472656) scale(0.9097384810447693,1) translate(402.7333984375,27.176795959472656) translate(-124.34031677246094,-27.176795959472656) scale(-0.3890373408794403,1) translate(124.34031677246094,27.176795959472656) translate(1.259145736694336,-27.176795959472656) scale(1,1.0891244411468506) translate(-1.259145736694336,27.176795959472656) translate(1.259145736694336,195.992431640625) scale(1,0.8670241832733154) translate(-1.259145736694336,-195.992431640625) translate(1.259145736694336,5.10655403137207) scale(0.9760673642158508,1) translate(-1.259145736694336,-5.10655403137207) translate(1.2900058031082153,226.0518341064453) scale(1,1.0182673931121826) translate(-1.2900058031082153,-226.0518341064453) translate(1.2900058031082153,1.0512511730194092) scale(1,1.0119597911834717) translate(-1.2900058031082153,-1.0512511730194092) translate(1.2900058031082153,1.0388308763504028) scale(1.3963974714279175,1.3604633808135986) translate(-1.2900058031082153,-1.0388308763504028) translate(0.9238154292106628,0.7635846138000488) scale(1.2203245162963867,1.1755257844924927) translate(-0.9238154292106628,-0.7635846138000488) translate(0.7570266127586365,0.6495673656463623) scale(0.7703351378440857,0.8220469951629639) translate(-0.7570266127586365,-0.6495673656463623) translate(0.9827237725257874,0.7901835441589355) scale(1.3998128175735474,1.3160043954849243) translate(-0.9827237725257874,-0.7901835441589355) translate(0.7020477652549744,0.6004430651664734) scale(1.0073866844177246,1.0415962934494019) translate(-0.7020477652549744,-0.6004430651664734) translate(0.6968916654586792,0.576465368270874) scale(1.0134429931640625,1.014521837234497) translate(-0.6968916654586792,-0.576465368270874) ">
					<path id="SVGID_5_" d="M445.758,654.336c-0.246,0.328-0.383,0.738-0.383,1.148c0,1.34,1.449,2.406,3.254,2.406       c1.777,0,3.254-1.066,3.254-2.406c0-0.41-0.137-0.82-0.383-1.148H445.758z"/>
				</defs>
				<clipPath id="SVGID_6_" transform="translate(190.84390258789062,589.531982421875) scale(0.0969090685248375,-3.3675966262817383) translate(-190.84390258789062,-589.531982421875) translate(1899.7188720703125,45.88517379760742) scale(8.764056205749512,-0.3406272530555725) translate(-1899.7188720703125,-45.88517379760742) translate(286.3525695800781,-134.70787048339844) scale(-1.0156751871109009) translate(-286.3525695800781,134.70787048339844) translate(-281.93316650390625,-88.31640625) scale(-0.8662209510803223) translate(281.93316650390625,88.31640625) translate(325.4749755859375,101.95597076416016) scale(-0.9862887859344482,0.49547260999679565) translate(-325.4749755859375,-101.95597076416016) translate(-11.64863395690918,426.7204895019531) scale(1.6788500547409058) translate(11.64863395690918,-426.7204895019531) translate(-325.2895812988281,254.1742706298828) scale(1.3234833478927612) translate(325.2895812988281,-254.1742706298828) translate(72.5682144165039,192.04946899414062) scale(1,1.3971794843673706) translate(-72.5682144165039,-192.04946899414062) translate(-245.7828826904297,137.45509338378906) scale(0.7410357594490051) translate(245.7828826904297,-137.45509338378906) translate(-13.323697090148926,185.49053955078125) scale(0.7639293074607849) translate(13.323697090148926,-185.49053955078125) translate(-335.7921142578125,242.81112670898438) scale(1.0386277437210083) translate(335.7921142578125,-242.81112670898438) translate(-4.952519416809082,12.835387229919434) scale(-1.047234296798706,0.9628089070320129) translate(4.952519416809082,-12.835387229919434) translate(4.729155540466309,234.27650451660156) scale(-1.4377785921096802) translate(-4.729155540466309,-234.27650451660156) translate(-321.6403503417969,-162.94337463378906) scale(-0.8363591432571411) translate(321.6403503417969,162.94337463378906) translate(702.923095703125,-26.120664596557617) scale(-0.7876160144805908) translate(-702.923095703125,26.120664596557617) translate(-1210.8204345703125,33.16421127319336) scale(-1.220313549041748) translate(1210.8204345703125,-33.16421127319336) translate(992.2207641601562,-27.176795959472656) scale(-1.1361825466156006,1) translate(-992.2207641601562,27.176795959472656) translate(-873.2933349609375,-27.176795959472656) scale(2.1684155464172363,1) translate(873.2933349609375,27.176795959472656) translate(-402.7333984375,-27.176795959472656) scale(0.9097384810447693,1) translate(402.7333984375,27.176795959472656) translate(-124.34031677246094,-27.176795959472656) scale(-0.3890373408794403,1) translate(124.34031677246094,27.176795959472656) translate(1.259145736694336,-27.176795959472656) scale(1,1.0891244411468506) translate(-1.259145736694336,27.176795959472656) translate(1.259145736694336,195.992431640625) scale(1,0.8670241832733154) translate(-1.259145736694336,-195.992431640625) translate(1.259145736694336,5.10655403137207) scale(0.9760673642158508,1) translate(-1.259145736694336,-5.10655403137207) translate(1.2900058031082153,226.0518341064453) scale(1,1.0182673931121826) translate(-1.2900058031082153,-226.0518341064453) translate(1.2900058031082153,1.0512511730194092) scale(1,1.0119597911834717) translate(-1.2900058031082153,-1.0512511730194092) translate(1.2900058031082153,1.0388308763504028) scale(1.3963974714279175,1.3604633808135986) translate(-1.2900058031082153,-1.0388308763504028) translate(0.9238154292106628,0.7635846138000488) scale(1.2203245162963867,1.1755257844924927) translate(-0.9238154292106628,-0.7635846138000488) translate(0.7570266127586365,0.6495673656463623) scale(0.7703351378440857,0.8220469951629639) translate(-0.7570266127586365,-0.6495673656463623) translate(0.9827237725257874,0.7901835441589355) scale(1.3998128175735474,1.3160043954849243) translate(-0.9827237725257874,-0.7901835441589355) translate(0.7020477652549744,0.6004430651664734) scale(1.0073866844177246,1.0415962934494019) translate(-0.7020477652549744,-0.6004430651664734) translate(0.6968916654586792,0.576465368270874) scale(1.0134429931640625,1.014521837234497) translate(-0.6968916654586792,-0.576465368270874) ">
					<use xlink:href="#SVGID_5_" overflow="visible" id="svg_122"/>
				</clipPath>
				<ellipse clip-path="url(#SVGID_6_)" fill="#EDEDED" cx="480.8745094091509" cy="118.11613873408112" rx="5.341897517293165" ry="2.4699293098568043" id="svg_123"/>
			</g>
		</g>
		<path fill="#232323" d="M497.56072139717327,106.70422077094577 h1.9834422626322632 c4.1213176470267,0 7.4797728853486865,-3.261318533067599 7.4797728853486865,-7.263435181679634 v-10.177843377711781 c0,-4.002116648612034 -3.3584552383219863,-7.263435181679634 -7.4797728853486865,-7.263435181679634 h-1.9834422626322632 c-4.1213176470267,0 -7.4797728853486865,3.261318533067599 -7.4797728853486865,7.263435181679634 V99.44078558926623 C490.0828091518458,103.44290223787823 493.4394037501466,106.70422077094577 497.56072139717327,106.70422077094577 z" id="svg_124"/>
		<path fill="#232323" d="M481.0773114490879,96.52637739323397 h13.482197593839944 c4.1213176470267,0 7.4797728853486865,-3.261318533067599 7.4797728853486865,-7.263435181679634 l0,0 c0,-4.002116648612034 -3.3584552383219863,-7.263435181679634 -7.4797728853486865,-7.263435181679634 h-13.482197593839944 c-4.1213176470267,0 -7.4797728853486865,3.261318533067599 -7.4797728853486865,7.263435181679634 l0,0 C473.5975385637392,93.26505886016656 476.95599380206096,96.52637739323397 481.0773114490879,96.52637739323397 z" id="svg_125"/>
		<path fill="#232323" d="M464.13432341575793,91.68408727211425 h26.964395187679887 c4.1213176470267,0 7.4797728853486865,-3.261318533067599 7.4797728853486865,-7.263435181679634 l0,0 c0,-4.002116648612034 -3.3584552383219863,-7.263435181679634 -7.4797728853486865,-7.263435181679634 h-26.964395187679887 c-4.1213176470267,0 -7.4797728853486865,3.261318533067599 -7.4797728853486865,7.263435181679634 l0,0 C456.60617388985804,88.37398447290114 460.0148664087527,91.68408727211425 464.13432341575793,91.68408727211425 z" id="svg_126"/>
		<ellipse fill="#232323" cx="474.76792503304983" cy="104.52876436248668" rx="1.2726777492052503" ry="1.7291311666670546" id="svg_127"/>
		<ellipse fill="#232323" cx="484.9436954494066" cy="104.52876436248668" rx="1.2726777492052503" ry="1.7291311666670546" id="svg_128"/>
		<path fill="#333333" d="M481.12754872966104,136.89084056704573 l4.273890128767646,5.18739363348314 c1.9834422626322632,2.37055396974221 5.749377665603842,2.37055396974221 7.632345367089632,-0.09937535696327911 l4.32412740934088,-5.583088236664193 L481.12754872966104,136.89084056704573 z" id="svg_129"/>
		<path fill="#E24D4D" d="M535.5661544708381,192.0260954349447 L535.5661544708381,192.0260954349447 c-4.579035092249528,1.7779154773066554 -9.81859739203607,-0.4444788693266663 -11.599229892354161,-4.8910743872653635 l-12.109045258171458,-29.790925192918856 c-1.8308697808913208,-4.446595517938702 0.4577174452228323,-9.534613794458563 5.03675253747236,-11.263745005619608 l0,0 c4.579035092249528,-1.7779154773066554 9.81859739203607,0.4444788693266663 11.599229892354161,4.8910743872653635 l12.109045258171458,29.790925192918856 C542.435637429223,185.20894594726406 540.145189563088,190.29696422378373 535.5661544708381,192.0260954349447 z" id="svg_130"/>
		<g opacity="0.03" id="svg_131">
			<path fill="#333333" d="M526.9178996521558,149.24048720057317 c0,-1.5809715880521618 -5.44423270212195,-4.5947551410475915 -11.446657410613204,-7.312219447825242 l4.629272372822767,101.47850088155589 c0.5079547257960696,-0.8401734725077213 0.7628624087047191,-2.0742347235244343 0.7628624087047191,-3.7545816685398714 L526.9178996521558,149.24048720057317 z" id="svg_132"/>
		</g>
		<path fill="#E24D4D" d="M502.6495718552399,214.2102887584925 L502.6495718552399,214.2102887584925 c-3.4589297994684616,-3.3588870653588163 -3.4589297994684616,-8.893191035877404 0,-12.302669192053887 l23.300794985876013,-22.626865368202488 c3.4589297994684616,-3.3588870653588163 9.158070184499069,-3.3588870653588163 12.669097904561998,0 l0,0 c3.4589297994684616,3.3588870653588163 3.4589297994684616,8.893191035877404 0,12.302669192053887 l-23.300794985876013,22.626865368202488 C511.8076420397396,217.5691758238513 506.108501654708,217.5691758238513 502.6495718552399,214.2102887584925 z" id="svg_133"/>
		<path opacity="0.1" fill="#333333" enable-background="new    " d="M502.6495718552399,214.2102887584925 L502.6495718552399,214.2102887584925 c-3.4589297994684616,-3.3588870653588163 -3.4589297994684616,-8.893191035877404 0,-12.302669192053887 l23.300794985876013,-22.626865368202488 c3.4589297994684616,-3.3588870653588163 9.158070184499069,-3.3588870653588163 12.669097904561998,0 l0,0 c3.4589297994684616,3.3588870653588163 3.4589297994684616,8.893191035877404 0,12.302669192053887 l-23.300794985876013,22.626865368202488 C511.8076420397396,217.5691758238513 506.108501654708,217.5691758238513 502.6495718552399,214.2102887584925 z" id="svg_134"/>
		<g id="svg_135">
			<path fill="#EAA583" d="M493.1342587866643,215.59250963261832 L493.1342587866643,215.59250963261832 c0.8149603292991886,0.7913892063621124 2.085777463799969,0.7913892063621124 2.9007377930991565,0 l3.1537848359865763,-3.0625678191410426 c0.7628624087047191,-0.7407981155444432 0.7628624087047191,-2.0254504573788217 0,-2.7662485729232653 l0,0 c-0.7628624087047191,-0.7407981155444432 -2.085777463799969,-0.7407981155444432 -2.8486398725046875,0 l-3.1537848359865763,3.0625678191410426 C492.37139637795974,213.61584344138515 492.37139637795974,214.85171151707382 493.1342587866643,215.59250963261832 z" id="svg_136"/>
		</g>
		<path fill="#E24D4D" d="M441.1889106739375,182.5908569974494 L441.1889106739375,182.5908569974494 c-4.071080366453465,-2.7174643067776563 -5.139087738640066,-8.152392920332964 -2.340685146708619,-12.103918478127328 l18.56918741188554,-26.432038127560023 c2.798402591931451,-3.9533323824664293 8.395207775794347,-4.990449744228646 12.46442750222658,-2.2729854374509917 l0,0 c4.071080366453465,2.7174643067776563 5.139087738640066,8.152392920332964 2.340685146708619,12.103918478127328 l-18.56918741188554,26.432038127560023 C450.85679622425397,184.2206128516473 445.25999104039124,185.25773021340942 441.1889106739375,182.5908569974494 z" id="svg_137"/>
		<path fill="#E24D4D" d="M454.5203964260578,216.08757959276258 L454.5203964260578,216.08757959276258 c-4.22365284819441,0.939548829471001 -8.495682336940828,-1.6803469450154396 -9.463215147980948,-5.780032125918694 l-7.78491784883057,-33.200403349095325 c-0.9675328110401313,-4.101492005575316 1.7303952197448467,-8.249961452624179 5.952187427918025,-9.189510282095174 l0,0 c4.22365284819441,-0.939548829471001 8.495682336940828,1.6803469450154396 9.463215147980948,5.780032125918694 l7.78491784883057,33.200403349095325 C461.43825602499425,211.04834558238832 458.7924259148041,215.14803076329153 454.5203964260578,216.08757959276258 z" id="svg_138"/>
		<path opacity="0.1" fill="#333333" enable-background="new    " d="M454.5203964260578,216.08757959276258 L454.5203964260578,216.08757959276258 c-4.22365284819441,0.939548829471001 -8.495682336940828,-1.6803469450154396 -9.463215147980948,-5.780032125918694 l-7.78491784883057,-33.200403349095325 c-0.9675328110401313,-4.101492005575316 1.7303952197448467,-8.249961452624179 5.952187427918025,-9.189510282095174 l0,0 c4.22365284819441,-0.939548829471001 8.495682336940828,1.6803469450154396 9.463215147980948,5.780032125918694 l7.78491784883057,33.200403349095325 C461.43825602499425,211.04834558238832 458.7924259148041,215.14803076329153 454.5203964260578,216.08757959276258 z" id="svg_139"/>
	</g>
	<g id="svg_140">
		<path fill="#EFEFEF" d="M528.9013419147884,25.234496307778 h38.81853276294268 c14.245060002544665,0 25.89638781549328,11.314336096437279 25.89638781549328,25.147385785725643 v10.029683754602898 c0,13.833049689288375 -11.65132781294863,25.147385785725643 -25.89638781549328,25.147385785725643 h-37.44538042727418 l-9.920932593203778,9.63398915142184 v-11.066801116365108 c-10.023267794371485,-3.4582624223220937 -17.298370277384755,-12.795932327526156 -17.298370277384755,-23.714573820782373 v-10.029683754602898 C503.0049540992951,36.54702557954334 514.6562819122438,25.234496307778 528.9013419147884,25.234496307778 z" id="svg_141"/>
		<path opacity="0.1" enable-background="new    " d="M528.9013419147884,25.234496307778 h38.81853276294268 c14.245060002544665,0 25.89638781549328,11.314336096437279 25.89638781549328,25.147385785725643 v10.029683754602898 c0,13.833049689288375 -11.65132781294863,25.147385785725643 -25.89638781549328,25.147385785725643 h-37.44538042727418 l-9.920932593203778,9.63398915142184 v-11.066801116365108 c-10.023267794371485,-3.4582624223220937 -17.298370277384755,-12.795932327526156 -17.298370277384755,-23.714573820782373 v-10.029683754602898 C503.0049540992951,36.54702557954334 514.6562819122438,25.234496307778 528.9013419147884,25.234496307778 z" id="svg_142"/>
		<path opacity="0.1" enable-background="new    " d="M527.6807620608616,44.007404650477426 h44.26276546506462 c1.5257248174094344,0 2.798402591931451,-1.2358680756887785 2.798402591931451,-2.7174643067776563 l0,0 c0,-1.4815962310888844 -1.272677774522018,-2.7174643067776563 -2.798402591931451,-2.7174643067776563 h-44.26276546506462 c-1.5257248174094344,0 -2.798402591931451,1.2358680756887785 -2.798402591931451,2.7174643067776563 l0,0 C524.8823594689296,42.773343399460614 526.1550372434515,44.007404650477426 527.6807620608616,44.007404650477426 z" id="svg_143"/>
		<path opacity="0.1" enable-background="new    " d="M536.3290168795423,55.37052501306043 h44.26276546506462 c1.5257248174094344,0 2.798402591931451,-1.2358680756887785 2.798402591931451,-2.7174643067776563 l0,0 c0,-1.4815962310888844 -1.272677774522018,-2.7174643067776563 -2.798402591931451,-2.7174643067776563 h-44.26276546506462 c-1.5257248174094344,0 -2.798402591931451,1.2358680756887785 -2.798402591931451,2.7174643067776563 l0,0 C533.5306142876117,54.13646376204355 534.803292062134,55.37052501306043 536.3290168795423,55.37052501306043 z" id="svg_144"/>
		<path opacity="0.1" enable-background="new    " d="M528.1887167866565,66.73364537564315 h44.26276546506462 c1.5257248174094344,0 2.798402591931451,-1.2358680756887785 2.798402591931451,-2.7174643067776563 l0,0 c0,-1.4815962310888844 -1.272677774522018,-2.7174643067776563 -2.798402591931451,-2.7174643067776563 h-44.26276546506462 c-1.5257248174094344,0 -2.798402591931451,1.2358680756887785 -2.798402591931451,2.7174643067776563 l0,0 C525.3903141947259,65.49958412462645 526.6629919692485,66.73364537564315 528.1887167866565,66.73364537564315 z" id="svg_145"/>
	</g>
</g></g></svg>